<svg width="14" height="14" viewBox="0 0 14 14" fill="none" xmlns="http://www.w3.org/2000/svg">
<g clip-path="url(#clip0_2257_12517)">
<path d="M13.6904 3.45808L13.7079 3.57241C13.4221 2.55858 12.5477 2.37308 12.4893 2.3375C11.0695 1.95191 2.98217 1.93733 1.52325 2.3375C0.522838 2.62741 0.339088 3.51408 0.304672 3.57241C-0.103078 5.70216 -0.105995 8.26125 0.322755 10.5415L0.304672 10.426C0.590505 11.4398 1.46492 11.6253 1.52325 11.6609C2.96234 12.0529 11.0287 12.0541 12.4893 11.6609C13.4898 11.3716 13.6735 10.4843 13.7079 10.426C14.0888 8.3995 14.1139 5.75758 13.6904 3.45808ZM5.60484 9.12925V4.875L9.26 7.00533L5.60484 9.12925Z" fill="#E53935"></path>
</g>
<defs>
<clipPath id="clip0_2257_12517">
<rect width="14" height="14" fill="white"></rect>
</clipPath>
</defs>
</svg>