<svg width="14" height="14" viewBox="0 0 14 14" fill="none" xmlns="http://www.w3.org/2000/svg">
<path d="M7.0281 1.05871C0.8562 1.02623 -2.00554 7.54225 3.60734 10.4369C3.50864 10.777 2.97356 12.6251 2.95214 12.7703C2.93688 12.8838 3.0234 12.979 3.16368 12.9303C3.3664 12.9019 5.51288 11.3941 5.88444 11.1323C14.7847 12.1975 16.5372 1.46751 7.0281 1.05871Z" fill="#3D1D1C"></path>
<path d="M3.8412 7.55145C3.82916 8.01807 3.11096 8.01989 3.09822 7.55145V5.34463H2.51862C2.03856 5.33245 2.03758 4.62965 2.51862 4.61719H4.4208C4.90114 4.62993 4.9017 5.33189 4.4208 5.34463H3.8412V7.55145ZM6.9632 7.85007C6.79646 7.93799 6.4739 7.91657 6.4179 7.73723L6.23394 7.25563H5.1012L4.9171 7.73751C4.86138 7.91657 4.53868 7.93813 4.37208 7.85007C4.2696 7.80289 4.17118 7.67297 4.28402 7.32255L5.1726 4.98385C5.35446 4.50421 5.97984 4.50211 6.16282 4.98427L7.05098 7.32199C7.16396 7.67311 7.06554 7.80303 6.9632 7.85007ZM8.8406 7.85203H7.64878C7.4525 7.85203 7.29276 7.69929 7.29276 7.51155V4.98861C7.3055 4.49973 8.03812 4.49819 8.05114 4.98861V7.17093H8.8406C9.30946 7.18255 9.31044 7.84013 8.8406 7.85203ZM11.7485 7.57231C11.7155 7.89081 11.2679 8.00813 11.0842 7.74465L10.2132 6.59035L10.0842 6.71929V7.52975C10.072 8.01863 9.35398 8.02045 9.3411 7.52989V4.98861C9.35398 4.49931 10.0709 4.49833 10.0841 4.98861V5.78703L11.1205 4.75061C11.2448 4.62447 11.461 4.65163 11.5822 4.77763C11.7084 4.89747 11.7357 5.11615 11.6095 5.23935L10.7629 6.08579L11.6773 7.29721C11.7368 7.37561 11.7624 7.47473 11.7485 7.57231Z" fill="#FFE812"></path>
<path d="M5.29688 6.59898H6.03888L5.66788 5.54492L5.29688 6.59898Z" fill="#3D1D1C"></path>
</svg>