<svg width="26" height="14" viewBox="0 0 26 14" fill="none" xmlns="http://www.w3.org/2000/svg">
<g clip-path="url(#clip0_2257_12513)">
<path fill-rule="evenodd" clip-rule="evenodd" d="M7.13315 3.85476V2.1543C8.66346 2.30345 10.0516 3.2296 10.0516 5.18314V10.7702H8.16538V5.18314C8.16538 4.42553 7.78146 3.98022 7.13261 3.85476H7.13315ZM2.07915 5.07168C2.49377 4.59407 3.11031 4.30437 3.953 4.30437C5.60123 4.30437 6.95977 5.75176 6.95977 7.6256C6.95977 9.49945 5.60069 10.9463 3.953 10.9463C3.11084 10.9463 2.49377 10.6571 2.07915 10.179V10.7702H0.192383V2.38422H2.07915V5.07168ZM1.95584 7.6256C1.95584 8.64707 2.637 9.28676 3.57608 9.28676C4.51515 9.28676 5.19577 8.64707 5.19577 7.6256C5.19577 6.60468 4.51515 5.96499 3.57608 5.96499C2.637 5.96499 1.95584 6.60468 1.95584 7.6256ZM11.1695 7.6256C11.1695 5.75122 12.6535 4.30437 14.5025 4.30437C16.3511 4.30437 17.8356 5.75122 17.8356 7.62507C17.8356 9.49891 16.3516 10.9458 14.5025 10.9458C12.654 10.9458 11.1695 9.49945 11.1695 7.62507V7.6256ZM12.9372 7.6256C12.9372 8.59214 13.6178 9.23183 14.5025 9.23183C15.3872 9.23183 16.0678 8.59107 16.0678 7.62507C16.0678 6.65907 15.3872 6.01937 14.5025 6.01937C13.6178 6.01937 12.9372 6.65853 12.9372 7.62507V7.6256ZM25.4909 4.48099H23.6548V5.12176C23.2402 4.60645 22.6355 4.30437 21.8186 4.30437C20.032 4.30437 18.7241 5.7636 18.7241 7.4996C18.7241 9.2356 20.0325 10.6943 21.8181 10.6943C22.6355 10.6943 23.2396 10.3928 23.6548 9.87637V10.4552C23.6548 11.3485 23.1136 11.8014 22.2332 11.8014H22.1708V13.4615C23.8443 13.4615 25.4915 12.5681 25.4915 10.4552L25.4909 4.48099ZM22.1331 9.07891C21.1665 9.07891 20.4865 8.43922 20.4865 7.50014C20.4865 6.56107 21.1671 5.92137 22.1331 5.92137C23.0996 5.92137 23.7802 6.56107 23.7802 7.50014C23.7802 8.43922 23.0996 9.07891 22.1331 9.07891Z" fill="#03C75A"></path>
</g>
<defs>
<clipPath id="clip0_2257_12513">
<rect width="25.8462" height="14" fill="white" transform="translate(0.0771484)"></rect>
</clipPath>
</defs>
</svg>