<svg width="16" height="16" viewBox="0 0 16 16" fill="none" xmlns="http://www.w3.org/2000/svg">
<path d="M8.00049 2.16797C11.2219 2.16823 13.8335 4.77948 13.8335 8.00098C13.8335 11.2225 11.2219 13.8337 8.00049 13.834C4.77883 13.834 2.1665 11.2226 2.1665 8.00098C2.1665 4.77932 4.77883 2.16797 8.00049 2.16797ZM8.00049 3.16797C5.33111 3.16797 3.1665 5.3316 3.1665 8.00098C3.1665 10.6704 5.33111 12.834 8.00049 12.834C10.6696 12.8337 12.8335 10.6702 12.8335 8.00098C12.8335 5.33176 10.6696 3.16823 8.00049 3.16797ZM10.1587 6.30762C10.3262 6.1952 10.5554 6.21223 10.7046 6.35938C10.8747 6.52742 10.8763 6.80138 10.7085 6.97168L7.68408 10.0391C7.60277 10.1215 7.49126 10.1678 7.37549 10.168C7.25973 10.168 7.14829 10.1213 7.06689 10.0391L5.69189 8.64453L5.63721 8.57617C5.52713 8.40719 5.54665 8.17838 5.6958 8.03125C5.8449 7.88452 6.07342 7.86834 6.24072 7.98047L6.30908 8.03613L7.37549 9.11719L10.0923 6.36328L10.1587 6.30762Z" fill="#6E5DC7"></path>
</svg>