<svg width="22" height="22" viewBox="0 0 22 22" fill="none" xmlns="http://www.w3.org/2000/svg">
<path d="M10.1533 3.08972C10.7056 2.73094 11.4315 2.75663 11.959 3.16686L17.6416 7.58679C18.021 7.88198 18.2431 8.33651 18.2432 8.81725V16.4364C18.2429 16.9951 18.021 17.5315 17.626 17.9266C17.2306 18.3218 16.6938 18.5438 16.1348 18.5438H5.86816C5.30935 18.5437 4.77319 18.3216 4.37793 17.9266C3.98279 17.5315 3.76005 16.9952 3.75977 16.4364V8.81725C3.75983 8.33655 3.98194 7.88199 4.36133 7.58679L10.0449 3.16686L10.1533 3.08972ZM11.1699 4.18054C11.0832 4.11314 10.9665 4.10376 10.8721 4.15417L10.833 4.18054L5.14941 8.60046C5.08279 8.65253 5.04401 8.73268 5.04395 8.81725V16.4364C5.04423 16.6547 5.1308 16.864 5.28516 17.0184C5.43977 17.173 5.64957 17.2605 5.86816 17.2606H8.15918V10.5692L8.17188 10.4403C8.23157 10.1477 8.49057 9.92761 8.80078 9.92761H13.2002L13.3301 9.9403C13.6223 10.0003 13.8418 10.2593 13.8418 10.5692V17.2606H16.1348C16.3535 17.2606 16.564 17.173 16.7188 17.0184C16.8729 16.864 16.9597 16.6546 16.96 16.4364V8.81725C16.9599 8.73254 16.9204 8.65252 16.8535 8.60046L11.1699 4.18054ZM9.44238 17.2606H12.5586V11.2108H9.44238V17.2606Z" fill="#F2F2F5"></path>
</svg>