<svg width="184" height="54" viewBox="0 0 184 54" fill="none" xmlns="http://www.w3.org/2000/svg">
<path d="M103.721 15.3046H86.6806V18.2029H100.527C100.498 20.6961 100.382 22.261 100.12 23.6228H84.0381V26.5211H93.6466V29.8551H86.0986V32.7535H100.584V39.913H103.806V29.8551H96.8392V26.5211H106.39V23.6228H103.284C103.574 21.5653 103.719 18.9564 103.719 15.3046H103.721Z" fill="#695189"></path>
<path d="M124.156 16.6675H126.13V22.5515H122.356C121.747 19.5954 119.164 17.3337 115.506 17.3337C111.849 17.3337 108.511 19.8269 108.511 23.8838C108.511 27.5073 111.617 30.4635 115.42 30.4635C119.483 30.4635 121.748 28.1745 122.358 25.4204H126.131V39.8836H129.325V14.087H124.157V16.6664L124.156 16.6675ZM115.388 27.7093C113.212 27.7093 111.557 25.9424 111.557 23.8543C111.557 21.7663 113.182 19.9994 115.447 19.9994C118.117 19.9994 119.395 21.8548 119.395 23.9122C119.395 25.9696 118.031 27.7093 115.388 27.7093Z" fill="#695189"></path>
<path d="M145.606 24.2026H152.456V21.3338H139.421V15.3046H134.806V17.8261H136.2V24.2026H142.412V26.6084H132.833V29.4773H155.185V26.6084H145.606V24.2026Z" fill="#695189"></path>
<path d="M139.22 30.8695H134.604V33.3616H136.026V39.3613H152.921V36.4925H139.22V30.8695Z" fill="#695189"></path>
<path d="M157.68 21.2453L158.957 23.9405C162.644 23.5058 166.505 21.5358 167.986 19.6509C169.35 21.4189 173.907 23.65 177.333 24.0267L178.523 21.2737C174.604 21.2737 170.134 19.1584 169.843 16.5778V14.8688H164.531V17.1872H166.012C165.517 19.3899 161.28 21.2442 157.68 21.2442V21.2453Z" fill="#695189"></path>
<path d="M179.278 27.6808V25.073H156.925V27.6808H166.505V29.0721H159.073V31.7094H173.501V32.8976H158.667V35.3329H159.857V39.3615H177.275V36.7242H162.992V35.4486H176.694V29.0721H169.699V27.6808H179.278Z" fill="#695189"></path>
<path d="M17.3155 28.6363H24.8929V25.7959H21.7867V18.8985H25.1828V16.0875H6.51696V18.8985H9.65274V25.7959H6.63402V28.6363H14.124V31.9409H4.71777V34.8392H26.7217V31.9409H17.3155V28.6363ZM12.8454 25.7959V18.8985H18.593V25.7959H12.8454Z" fill="#695189"></path>
<path d="M41.5245 27.8843H47.7654V25.0733H35.195V18.8693H47.4165V16.0584H30.4055V18.5799H31.9728V27.8843H38.3024V31.9424H28.9246V34.8112H50.6966V31.9424H41.5245V27.8843Z" fill="#695189"></path>
<path d="M66.3137 27.42V16.1161H63.0913V19.4491H57.3433V16.4055H52.6694V18.8987H54.1209V27.42H66.3137ZM57.3433 22.2906H63.0913V24.5217H57.3433V22.2906Z" fill="#695189"></path>
<path d="M72.8439 14.087H67.6482V16.6675H69.6215V28.2313H72.8439V23.2461H76.5312V20.3772H72.8439V14.087Z" fill="#695189"></path>
<path d="M61.6393 35.5644H72.3219V32.8976H61.6393V31.7673H72.9607V28.9564H56.7328V31.4768H58.4172V39.593H73.4835V36.7526H61.6393V35.5644Z" fill="#695189"></path>
</svg>