<svg width="44" height="44" viewBox="0 0 44 44" fill="none" xmlns="http://www.w3.org/2000/svg">
<path d="M38.0978 15.5274L33 20.6252L23.375 11.0002L28.4728 5.90241C28.7306 5.64474 29.0802 5.5 29.4448 5.5C29.8093 5.5 30.1589 5.64474 30.4167 5.90241L38.0978 13.5783C38.2262 13.7061 38.328 13.858 38.3976 14.0252C38.467 14.1924 38.5028 14.3718 38.5028 14.5529C38.5028 14.734 38.467 14.9133 38.3976 15.0805C38.328 15.2478 38.2262 15.3996 38.0978 15.5274Z" fill="#0E2B69" fill-opacity="0.4"></path>
<path d="M39.0689 12.6103L31.3895 4.92922C31.1341 4.67379 30.8309 4.47117 30.4973 4.33293C30.1636 4.19469 29.8059 4.12354 29.4448 4.12354C29.0835 4.12354 28.726 4.19469 28.3922 4.33293C28.0586 4.47117 27.7554 4.67379 27.5 4.92922L6.30611 26.1248C6.04964 26.3792 5.84629 26.6822 5.7079 27.0158C5.56952 27.3496 5.49885 27.7075 5.50001 28.0687V35.7498C5.50001 36.4791 5.78974 37.1786 6.30545 37.6944C6.82118 38.2101 7.52066 38.4998 8.25001 38.4998H15.9311C16.2924 38.501 16.6503 38.4304 16.984 38.2919C17.3176 38.1535 17.6206 37.9502 17.875 37.6937L39.0689 16.4998C39.3243 16.2445 39.527 15.9413 39.6652 15.6076C39.8035 15.2739 39.8747 14.9163 39.8747 14.5551C39.8747 14.1939 39.8035 13.8362 39.6652 13.5025C39.527 13.1689 39.3243 12.8657 39.0689 12.6103ZM8.81892 27.4998L23.375 12.9437L26.2436 15.8123L11.6875 30.3667L8.81892 27.4998ZM8.25001 30.8187L13.1811 35.7498H8.25001V30.8187ZM16.5 35.1809L13.6314 32.3123L28.1875 17.7562L31.0561 20.6248L16.5 35.1809ZM33 18.6809L25.3189 10.9998L29.4439 6.87484L37.125 14.5542L33 18.6809Z" fill="#0E2B69"></path>
</svg>