<svg width="22" height="22" viewBox="0 0 22 22" fill="none" xmlns="http://www.w3.org/2000/svg">
<path fill-rule="evenodd" clip-rule="evenodd" d="M10.0825 3.89648C6.66526 3.89648 3.89502 6.66672 3.89502 10.084C3.89502 13.5012 6.66526 16.2715 10.0825 16.2715C11.5435 16.2715 12.8862 15.7652 13.9447 14.9184L16.9297 17.9035C17.1982 18.1719 17.6335 18.1719 17.902 17.9035C18.1705 17.635 18.1705 17.1997 17.902 16.9312L14.917 13.9461C15.7637 12.8876 16.27 11.5449 16.27 10.084C16.27 6.66672 13.4998 3.89648 10.0825 3.89648ZM5.27002 10.084C5.27002 7.42611 7.42465 5.27148 10.0825 5.27148C12.7404 5.27148 14.895 7.42611 14.895 10.084C14.895 12.7419 12.7404 14.8965 10.0825 14.8965C7.42465 14.8965 5.27002 12.7419 5.27002 10.084Z" fill="#474C51"></path>
</svg>