<svg width="44" height="44" viewBox="0 0 44 44" fill="none" xmlns="http://www.w3.org/2000/svg">
<path d="M38.5 22C38.5 25.2634 37.5324 28.4536 35.7192 31.167C33.9061 33.8803 31.3292 35.9951 28.3144 37.2439C25.2993 38.4928 21.9818 38.8197 18.781 38.1829C15.5803 37.5463 12.6403 35.9748 10.3327 33.6672C8.02518 31.3596 6.45371 28.4197 5.81705 25.219C5.18039 22.0182 5.50714 18.7007 6.75601 15.6857C8.00485 12.6707 10.1197 10.0938 12.8331 8.28075C15.5465 6.46771 18.7366 5.5 22 5.5C26.3761 5.5 30.573 7.23839 33.6672 10.3327C36.7617 13.4271 38.5 17.6239 38.5 22Z" fill="#695189" fill-opacity="0.4"></path>
<path d="M22 4.125C18.4647 4.125 15.0087 5.17335 12.0692 7.13749C9.12966 9.10161 6.83857 11.8933 5.48566 15.1595C4.13274 18.4257 3.77877 22.0198 4.46847 25.4872C5.15818 28.9546 6.8606 32.1396 9.36048 34.6395C11.8603 37.1394 15.0454 38.8419 18.5128 39.5316C21.9802 40.2213 25.5743 39.8673 28.8405 38.5143C32.1068 37.1614 34.8984 34.8703 36.8626 31.9308C38.8267 28.9914 39.875 25.5353 39.875 22C39.87 17.2607 37.9851 12.7171 34.634 9.366C31.2828 6.01487 26.7393 4.13 22 4.125ZM22 37.125C19.0085 37.125 16.0843 36.238 13.597 34.5759C11.1097 32.9141 9.1711 30.5518 8.02633 27.7881C6.88156 25.0243 6.58203 21.9832 7.16563 19.0492C7.74923 16.1153 9.18975 13.4203 11.305 11.305C13.4203 9.18974 16.1153 7.74922 19.0493 7.16562C21.9832 6.58202 25.0243 6.88155 27.7881 8.02632C30.5518 9.1711 32.9141 11.1097 34.5759 13.597C36.238 16.0843 37.125 19.0085 37.125 22C37.1205 26.01 35.5255 29.8545 32.6899 32.6899C29.8545 35.5255 26.01 37.1205 22 37.125ZM13.75 18.5625C13.75 18.1546 13.871 17.7559 14.0976 17.4166C14.3242 17.0775 14.6464 16.8131 15.0232 16.657C15.4001 16.5009 15.8148 16.4601 16.2149 16.5396C16.615 16.6192 16.9825 16.8156 17.2709 17.1041C17.5594 17.3925 17.7557 17.76 17.8353 18.1601C17.9149 18.5603 17.8741 18.9748 17.7181 19.3518C17.5619 19.7287 17.2975 20.0508 16.9584 20.2775C16.6192 20.504 16.2204 20.625 15.8125 20.625C15.2655 20.625 14.7409 20.4077 14.3541 20.0209C13.9673 19.6341 13.75 19.1096 13.75 18.5625ZM30.25 18.5625C30.25 18.9704 30.129 19.3691 29.9025 19.7084C29.6758 20.0475 29.3537 20.3118 28.9768 20.4681C28.5998 20.6241 28.1853 20.6649 27.7851 20.5853C27.385 20.5057 27.0176 20.3094 26.7291 20.0209C26.4406 19.7325 26.2443 19.365 26.1647 18.9649C26.0851 18.5647 26.1259 18.1502 26.2819 17.7732C26.4382 17.3963 26.7025 17.0742 27.0416 16.8476C27.3809 16.621 27.7796 16.5 28.1875 16.5C28.7346 16.5 29.2591 16.7173 29.6459 17.1041C30.0328 17.4909 30.25 18.0154 30.25 18.5625ZM30.0644 26.8125C28.2958 29.8702 25.3567 31.625 22 31.625C18.6433 31.625 15.7042 29.8719 13.9356 26.8125C13.8362 26.6559 13.7693 26.481 13.7392 26.2981C13.7092 26.115 13.7164 25.9279 13.7605 25.7477C13.8046 25.5676 13.8847 25.3983 13.996 25.25C14.1072 25.1015 14.2474 24.9772 14.4079 24.8844C14.5685 24.7916 14.7461 24.7323 14.9302 24.71C15.1143 24.6874 15.301 24.7026 15.4791 24.7543C15.6572 24.806 15.823 24.8932 15.9666 25.0106C16.1101 25.128 16.2284 25.2732 16.3144 25.4375C17.5983 27.6564 19.6161 28.875 22 28.875C24.3839 28.875 26.4017 27.6547 27.6856 25.4375C27.7716 25.2732 27.8898 25.128 28.0335 25.0106C28.177 24.8932 28.3427 24.806 28.5209 24.7543C28.699 24.7026 28.8857 24.6874 29.0697 24.71C29.2538 24.7323 29.4315 24.7916 29.5921 24.8844C29.7526 24.9772 29.8929 25.1015 30.0041 25.25C30.1153 25.3983 30.1954 25.5676 30.2395 25.7477C30.2837 25.9279 30.2909 26.115 30.2608 26.2981C30.2306 26.481 30.1639 26.6559 30.0644 26.8125Z" fill="#312E34"></path>
</svg>