<svg width="30" height="30" viewBox="0 0 30 30" fill="none" xmlns="http://www.w3.org/2000/svg">
<path d="M8.07058 20.8124C8.05762 20.6926 8.07494 20.5715 8.12097 20.4602C8.16699 20.3488 8.24024 20.2508 8.334 20.1752C8.42775 20.0995 8.53901 20.0486 8.65756 20.0271C8.77611 20.0057 8.89815 20.0143 9.01249 20.0523L9.01921 20.0542L9.05757 20.0662C9.09402 20.0767 9.15157 20.0935 9.22926 20.1137C9.38561 20.1544 9.62252 20.2105 9.9333 20.2671C10.5553 20.3798 11.4713 20.4949 12.6223 20.4949C13.7733 20.4949 14.6893 20.3798 15.3114 20.2667C15.5479 20.2244 15.7827 20.1734 16.0154 20.1137C16.0858 20.0953 16.1559 20.0755 16.2255 20.0542L16.2322 20.0523H16.2331C16.3474 20.0145 16.4694 20.006 16.5878 20.0276C16.7062 20.0492 16.8173 20.1001 16.9109 20.1757C17.0045 20.2514 17.0777 20.3493 17.1237 20.4605C17.1696 20.5718 17.187 20.6928 17.1741 20.8124L16.8307 23.9844C16.718 25.0227 15.9737 25.9641 14.8347 26.1138C14.264 26.1886 13.5206 26.25 12.6223 26.25C11.6775 26.25 10.9443 26.1819 10.4057 26.1003C9.41438 25.9502 8.76167 25.1627 8.59621 24.2793C8.43459 23.4185 8.21206 22.1188 8.07058 20.8124Z" fill="#6E5DC7"></path>
<path fill-rule="evenodd" clip-rule="evenodd" d="M17.1285 5.89571L15.7133 6.67024C13.8836 7.67066 13.8836 10.2978 15.7133 11.2982L17.4599 12.2536C17.5806 12.3196 17.6798 12.4188 17.7458 12.5394L18.7006 14.2861C19.2425 15.2774 20.2626 15.7315 21.2424 15.6481C20.7723 17.5679 19.6749 19.276 18.1241 20.5015C18.0436 20.7884 17.9595 21.0742 17.8719 21.359C17.6465 22.0947 17.0206 22.6582 16.2164 22.7421C15.5195 22.8145 14.3676 22.8922 12.6223 22.8922C10.8766 22.8922 9.72516 22.8145 9.02832 22.7421C8.22406 22.6582 7.59868 22.0947 7.37279 21.359C7.28514 21.0742 7.20105 20.7884 7.12053 20.5015C5.06886 18.8776 3.75 16.3627 3.75 13.5403C3.75 8.64038 7.72241 4.66797 12.6223 4.66797C14.2673 4.66797 15.8077 5.1159 17.1285 5.89571Z" fill="#D5CBFF"></path>
<path fill-rule="evenodd" clip-rule="evenodd" d="M22.067 4.37334C21.6124 3.54222 20.4182 3.54222 19.9636 4.37334L19.0082 6.11999C18.8102 6.48215 18.5124 6.77992 18.1503 6.97797L16.4036 7.93331C15.5725 8.38795 15.5725 9.58212 16.4036 10.0368L18.1503 10.9921C18.5124 11.1902 18.8102 11.4879 19.0082 11.8501L19.9636 13.5967C20.4182 14.4279 21.6124 14.4279 22.067 13.5967L23.0224 11.8501C23.2204 11.4879 23.5182 11.1901 23.8804 10.9921L25.627 10.0368C26.4581 9.58212 26.4581 8.38795 25.627 7.93331L23.8804 6.97797C23.5182 6.77992 23.2204 6.48215 23.0224 6.11999L22.067 4.37334Z" fill="#6E5DC7"></path>
</svg>