<svg width="28" height="28" viewBox="0 0 28 28" fill="none" xmlns="http://www.w3.org/2000/svg">
<path d="M14.0001 4.63989C14.4834 4.63989 14.8751 5.03164 14.8751 5.51489V7.05761C14.8751 7.54086 14.4834 7.93261 14.0001 7.93261C13.5169 7.93261 13.1251 7.54086 13.1251 7.05761V5.51489C13.1251 5.03164 13.5169 4.63989 14.0001 4.63989Z" fill="#FD5D0E"></path>
<path fill-rule="evenodd" clip-rule="evenodd" d="M9.35375 13.9999C9.35375 11.4339 11.4339 9.35373 13.9999 9.35373C16.5659 9.35373 18.646 11.4339 18.646 13.9999C18.646 16.5659 16.5659 18.646 13.9999 18.646C11.4339 18.646 9.35375 16.5659 9.35375 13.9999ZM13.9999 11.1037C12.4004 11.1037 11.1037 12.4004 11.1037 13.9999C11.1037 15.5994 12.4004 16.896 13.9999 16.896C15.5994 16.896 16.896 15.5994 16.896 13.9999C16.896 12.4004 15.5994 11.1037 13.9999 11.1037Z" fill="#FD5D0E"></path>
<path d="M14.8751 20.9421C14.8751 20.4588 14.4834 20.0671 14.0001 20.0671C13.5169 20.0671 13.1251 20.4588 13.1251 20.9421V22.4848C13.1251 22.968 13.5169 23.3598 14.0001 23.3598C14.4834 23.3598 14.8751 22.968 14.8751 22.4848V20.9421Z" fill="#FD5D0E"></path>
<path d="M7.38047 7.37993C7.72218 7.03823 8.2762 7.03823 8.61791 7.37993L9.71324 8.47527C10.055 8.81698 10.055 9.37099 9.71324 9.7127C9.37153 10.0544 8.81752 10.0544 8.47581 9.7127L7.38047 8.61737C7.03877 8.27566 7.03877 7.72164 7.38047 7.37993Z" fill="#FD5D0E"></path>
<path d="M19.5242 18.287C19.1825 17.9453 18.6285 17.9453 18.2868 18.287C17.9451 18.6287 17.9451 19.1827 18.2868 19.5244L19.3821 20.6197C19.7238 20.9614 20.2778 20.9614 20.6195 20.6197C20.9612 20.278 20.9612 19.724 20.6195 19.3823L19.5242 18.287Z" fill="#FD5D0E"></path>
<path d="M4.64014 13.9999C4.64014 13.5166 5.03189 13.1249 5.51514 13.1249H7.05786C7.54111 13.1249 7.93286 13.5166 7.93286 13.9999C7.93286 14.4831 7.54111 14.8749 7.05786 14.8749H5.51514C5.03189 14.8749 4.64014 14.4831 4.64014 13.9999Z" fill="#FD5D0E"></path>
<path d="M20.9421 13.1249C20.4588 13.1249 20.0671 13.5166 20.0671 13.9999C20.0671 14.4831 20.4588 14.8749 20.9421 14.8749H22.4848C22.9681 14.8749 23.3598 14.4831 23.3598 13.9999C23.3598 13.5166 22.9681 13.1249 22.4848 13.1249H20.9421Z" fill="#FD5D0E"></path>
<path d="M9.71324 18.287C10.055 18.6287 10.055 19.1827 9.71324 19.5244L8.61791 20.6197C8.2762 20.9614 7.72218 20.9614 7.38047 20.6197C7.03877 20.278 7.03877 19.724 7.38047 19.3823L8.47581 18.287C8.81752 17.9453 9.37153 17.9453 9.71324 18.287Z" fill="#FD5D0E"></path>
<path d="M20.6195 8.61737C20.9612 8.27566 20.9612 7.72164 20.6195 7.37993C20.2778 7.03823 19.7238 7.03823 19.3821 7.37993L18.2868 8.47527C17.9451 8.81698 17.9451 9.37099 18.2868 9.7127C18.6285 10.0544 19.1825 10.0544 19.5242 9.7127L20.6195 8.61737Z" fill="#FD5D0E"></path>
</svg>