<svg width="18" height="18" viewBox="0 0 18 18" fill="none" xmlns="http://www.w3.org/2000/svg">
<path fill-rule="evenodd" clip-rule="evenodd" d="M14.0625 3.75C14.0625 3.43934 13.8107 3.1875 13.5 3.1875H5.90625C5.39615 3.1875 4.89979 3.37627 4.52808 3.7232C4.15505 4.07136 3.9375 4.55221 3.9375 5.0625V12.9375C3.9375 13.4478 4.15505 13.9286 4.52808 14.2768C4.89979 14.6237 5.39615 14.8125 5.90625 14.8125H13.5C13.8107 14.8125 14.0625 14.5607 14.0625 14.25V3.75ZM5.29569 4.54564C5.45141 4.40029 5.67043 4.3125 5.90625 4.3125H12.9375V11.0625H5.90625C5.61348 11.0625 5.32525 11.1247 5.0625 11.2433V5.0625C5.0625 4.8766 5.14127 4.68976 5.29569 4.54564ZM5.0625 12.9375C5.0625 13.1234 5.14127 13.3102 5.29569 13.4544C5.45141 13.5997 5.67043 13.6875 5.90625 13.6875H12.9375V12.1875H5.90625C5.67043 12.1875 5.45141 12.2753 5.29569 12.4206C5.14127 12.5648 5.0625 12.7516 5.0625 12.9375Z" fill="#5D5D5D"></path>
</svg>