<svg width="16" height="16" viewBox="0 0 16 16" fill="none" xmlns="http://www.w3.org/2000/svg">
<path d="M14.875 9.60449C15.2547 9.60449 15.5625 9.9123 15.5625 10.292V13.3477C15.5624 13.935 15.3293 14.4987 14.9141 14.9141C14.4987 15.3293 13.935 15.5624 13.3477 15.5625H2.65234C2.06505 15.5624 1.50126 15.3293 1.08594 14.9141C0.670696 14.4987 0.437614 13.935 0.4375 13.3477V10.292C0.4375 9.9123 0.745304 9.60449 1.125 9.60449C1.5047 9.60449 1.8125 9.9123 1.8125 10.292V13.3477C1.81261 13.5703 1.90121 13.7839 2.05859 13.9414C2.21606 14.0988 2.42972 14.1874 2.65234 14.1875H13.3477C13.5703 14.1874 13.7839 14.0988 13.9414 13.9414C14.0988 13.7839 14.1874 13.5703 14.1875 13.3477V10.292C14.1875 9.9123 14.4953 9.60449 14.875 9.60449ZM8 0.4375C8.3797 0.4375 8.6875 0.745304 8.6875 1.125V8.62988L11.333 5.98438C11.6014 5.71613 12.0372 5.71623 12.3057 5.98438C12.5741 6.25281 12.574 6.68853 12.3057 6.95703L8.49512 10.7666C8.36999 10.8971 8.19503 10.9795 8 10.9795C7.80472 10.9795 7.62906 10.8974 7.50391 10.7666L3.69434 6.95703L3.60645 6.84863C3.43061 6.58182 3.45955 6.21916 3.69434 5.98438C3.92914 5.7497 4.29183 5.72064 4.55859 5.89648L4.66699 5.98438L7.3125 8.62988V1.125C7.3125 0.745305 7.62031 0.437501 8 0.4375Z" fill="#6E5DC7"></path>
<path d="M14.875 9.60449C15.2547 9.60449 15.5625 9.9123 15.5625 10.292V13.3467C15.5625 13.9342 15.3285 14.4976 14.9131 14.9131C14.4976 15.3285 13.9342 15.5625 13.3467 15.5625H2.65332C2.06579 15.5625 1.50236 15.3285 1.08691 14.9131C0.67147 14.4976 0.4375 13.9342 0.4375 13.3467V10.292C0.4375 9.9123 0.745304 9.60449 1.125 9.60449C1.5047 9.60449 1.8125 9.9123 1.8125 10.292V13.3467C1.8125 13.5695 1.90101 13.7838 2.05859 13.9414C2.21618 14.099 2.43047 14.1875 2.65332 14.1875H13.3467C13.5695 14.1875 13.7838 14.099 13.9414 13.9414C14.099 13.7838 14.1875 13.5695 14.1875 13.3467V10.292C14.1875 9.9123 14.4953 9.60449 14.875 9.60449ZM8 0.4375C8.3797 0.4375 8.6875 0.745304 8.6875 1.125V8.63086L11.334 5.98633C11.6024 5.71823 12.0373 5.7181 12.3057 5.98633C12.5738 6.25472 12.5737 6.68959 12.3057 6.95801L8.4873 10.7773C8.43204 10.8326 8.36729 10.8738 8.30078 10.9062C8.28834 10.9123 8.27652 10.9214 8.26367 10.9268C8.2317 10.94 8.1983 10.9479 8.16504 10.9561C8.15536 10.9584 8.14558 10.9629 8.13574 10.9648C8.13085 10.9658 8.126 10.9669 8.12109 10.9678C8.08242 10.9746 8.04257 10.9784 8.00195 10.9785L8 10.9795C7.95804 10.9795 7.91684 10.974 7.87695 10.9668C7.87305 10.9661 7.86913 10.9656 7.86523 10.9648C7.84322 10.9604 7.82197 10.9528 7.80078 10.9463C7.78048 10.9401 7.75902 10.9358 7.73926 10.9277C7.71351 10.9172 7.69009 10.9022 7.66602 10.8887C7.61532 10.8603 7.5661 10.8274 7.52246 10.7852L3.69531 6.95801C3.42687 6.68956 3.42695 6.25482 3.69531 5.98633C3.96382 5.71818 4.39862 5.71795 4.66699 5.98633L7.3125 8.63086V1.125C7.3125 0.745305 7.6203 0.437501 8 0.4375Z" fill="#6E5DC7"></path>
</svg>