<svg width="44" height="44" viewBox="0 0 44 44" fill="none" xmlns="http://www.w3.org/2000/svg">
<path d="M36.8229 18.1375V27.1019C36.8237 27.4312 36.7038 27.7494 36.486 27.9963C34.5826 30.117 29.9337 34.1276 22.0001 34.1276C14.0665 34.1276 9.42089 30.117 7.51414 27.9963C7.29634 27.7494 7.17649 27.4312 7.17725 27.1019V18.1375L22.0001 26.0424L36.8229 18.1375Z" fill="#431107" fill-opacity="0.4"></path>
<path d="M42.8467 14.0731L22.6338 3.29287C22.4388 3.18908 22.2213 3.13477 22.0005 3.13477C21.7797 3.13477 21.562 3.18908 21.3671 3.29287L1.15419 14.0731C0.938592 14.188 0.758295 14.3594 0.632569 14.5688C0.506842 14.7783 0.44043 15.018 0.44043 15.2623C0.44043 15.5066 0.506842 15.7463 0.632569 15.9558C0.758295 16.1653 0.938609 16.3366 1.15419 16.4515L5.83012 18.9461V27.102C5.82871 27.764 6.07231 28.4029 6.51399 28.8959C8.72056 31.3535 13.6643 35.4752 22.0005 35.4752C24.7644 35.4981 27.5078 34.9974 30.0857 33.9997V39.5178C30.0857 39.8752 30.2276 40.218 30.4803 40.4707C30.733 40.7233 31.0757 40.8654 31.4332 40.8654C31.7906 40.8654 32.1334 40.7233 32.386 40.4707C32.6387 40.218 32.7807 39.8752 32.7807 39.5178V32.6976C34.5379 31.6833 36.1258 30.4006 37.487 28.8959C37.9286 28.4029 38.1722 27.764 38.1708 27.102V18.9461L42.8467 16.4515C43.0624 16.3366 43.2426 16.1653 43.3684 15.9558C43.4941 15.7463 43.5604 15.5066 43.5604 15.2623C43.5604 15.018 43.4941 14.7783 43.3684 14.5688C43.2426 14.3594 43.0624 14.188 42.8467 14.0731ZM22.0005 32.7802C14.712 32.7802 10.4252 29.2193 8.52517 27.102V20.3829L21.3671 27.2317C21.562 27.3355 21.7797 27.3899 22.0005 27.3899C22.2213 27.3899 22.4388 27.3355 22.6338 27.2317L30.0857 23.2582V31.0638C27.9633 32.0542 25.2885 32.7802 22.0005 32.7802ZM35.4758 27.0953C34.6679 27.9916 33.7642 28.7965 32.7807 29.4956V21.8197L35.4758 20.3829V27.0953ZM32.1069 19.1263L32.0699 19.1044L22.6372 14.0731C22.3225 13.9124 21.9572 13.8817 21.6201 13.9877C21.2829 14.0937 21.0009 14.3278 20.8349 14.6397C20.6688 14.9517 20.6317 15.3163 20.7319 15.6552C20.8322 15.994 21.0614 16.28 21.3705 16.4515L29.2435 20.6524L22.0005 24.5148L4.65102 15.2623L22.0005 6.00984L39.3499 15.2623L32.1069 19.1263Z" fill="#431107"></path>
</svg>