<svg width="120" height="120" viewBox="0 0 120 120" fill="none" xmlns="http://www.w3.org/2000/svg">
<rect width="120" height="120" rx="16" fill="#F2F2F5"></rect>
<path d="M87.178 58.6208C87.2263 58.4452 87.26 58.2667 87.3051 58.0904C90.3569 57.2134 92.5987 54.4023 92.5987 51.0721C92.5987 47.7586 90.3795 44.9574 87.3506 44.0659C87.2657 43.7267 87.1711 43.3914 87.0741 43.0566C87.9055 42.1755 88.5098 41.0958 88.8236 39.8895C89.3148 38.0011 89.0415 36.0344 88.054 34.3516C86.7483 32.1261 84.3332 30.743 81.7518 30.743C81.1571 30.743 80.5683 30.8249 79.9952 30.9671C79.8897 30.8597 79.7845 30.7522 79.6775 30.6467C80.4352 27.5868 79.1426 24.262 76.2899 22.5867C75.1677 21.9282 73.8891 21.5805 72.5905 21.5805C70.732 21.5805 68.9667 22.3061 67.6323 23.5384C67.2776 23.4342 66.9219 23.3326 66.5618 23.2418C65.6551 20.2368 62.8641 18.0408 59.5675 18.0408C56.2707 18.0408 53.4797 20.2368 52.5732 23.242C52.213 23.3326 51.8574 23.4342 51.5028 23.5384C50.1688 22.3063 48.4033 21.5805 46.5443 21.5805C45.2453 21.5805 43.9666 21.9284 42.8459 22.5861C41.1628 23.5743 39.9654 25.1583 39.474 27.0469C39.1614 28.2476 39.1607 29.4794 39.4535 30.6501C39.3478 30.7548 39.2441 30.8609 39.14 30.9669C38.5666 30.8245 37.9777 30.743 37.3828 30.743C34.8018 30.743 32.387 32.1257 31.0808 34.3514C30.0933 36.0344 29.82 38.0011 30.3111 39.8895C30.6248 41.0954 31.2289 42.1749 32.0607 43.0566C31.9637 43.3911 31.8691 43.7265 31.7841 44.0659C28.7553 44.9574 26.5361 47.7586 26.5361 51.0721C26.5361 54.3978 28.7719 57.2061 31.8175 58.0872C31.901 58.4145 31.988 58.741 32.0833 59.0657C31.2401 59.9515 30.6276 61.0387 30.3111 62.2549C29.8198 64.1438 30.0934 66.1111 31.0815 67.794C32.3882 70.0191 34.8026 71.4012 37.3828 71.4012C37.4622 71.4012 37.5401 71.3879 37.6193 71.3855C37.8546 71.7933 38.0865 72.1925 38.3109 72.5781C39.1035 73.9398 40.1834 75.7954 40.4051 76.4887C40.4274 76.6059 40.4524 76.7226 40.4807 76.8386C40.5082 76.9725 40.566 77.4458 40.6081 77.7916C40.7992 79.3563 41.061 81.4993 42.0247 83.6327C42.7332 85.2015 43.7133 86.5165 44.9147 87.5396C44.9807 87.7169 45.0537 87.8908 45.1338 88.0607V89.7168C45.1338 89.7417 45.134 89.7664 45.1341 89.7911C45.1341 89.7966 45.1341 89.8016 45.1341 89.8071V90.4647C45.1341 91.4103 45.3299 92.3099 45.6833 93.1257C46.661 96.0874 48.8776 98.4873 51.692 99.7272C53.7661 101.763 56.5842 102.95 59.5675 102.95C62.5504 102.95 65.3688 101.763 67.443 99.7272C70.256 98.4876 72.4721 96.0893 73.4503 93.1293C73.8045 92.3127 74.001 91.4117 74.001 90.4647V89.8071C74.001 89.7919 74.001 89.7771 74.0008 89.762C74.001 89.747 74.001 89.7318 74.001 89.7168V88.7422V88.0845V88.0607C74.0775 87.8982 74.1479 87.7318 74.2114 87.5626C75.4212 86.5395 76.4076 85.2212 77.121 83.6465C78.0895 81.5088 78.3518 79.3605 78.5431 77.792C78.5854 77.4462 78.643 76.9726 78.6769 76.8115C78.705 76.6964 78.7262 76.5964 78.7464 76.4877C78.9692 75.7933 80.0482 73.9398 80.8401 72.579C81.0614 72.1989 81.2938 71.7987 81.5313 71.3866C81.6051 71.3888 81.6779 71.4012 81.7518 71.4012C84.3327 71.4012 86.7473 70.0189 88.0536 67.7933C89.0413 66.1111 89.315 64.1438 88.8236 62.2549C88.5077 61.0404 87.8965 59.9546 87.0552 59.0695C87.0744 59.0049 87.095 58.9412 87.1131 58.8758C87.1364 58.791 87.1581 58.7059 87.178 58.6208Z" fill="#DDCAC6"></path>
<path d="M81.4167 56.4394C81.4495 56.3255 81.488 56.2151 81.5196 56.1003L81.5131 56.0998C82.069 54.1688 82.3728 52.1311 82.3728 50.0212C82.3728 37.9037 72.5498 28.0803 60.4325 28.0803C48.3149 28.0803 38.4917 37.9037 38.4917 50.0212C38.4917 52.4919 38.9061 54.8647 39.6593 57.081C42.1101 64.9452 47.2705 70.8427 47.8549 74.2595C48.4099 76.5387 47.9812 81.6497 52.0625 82.2909V84.2145H52.6982V88.7231C52.6982 88.7536 52.7022 88.7831 52.7029 88.8133H52.6985V89.4709H52.7683C53.0953 91.3015 54.5964 92.7241 56.467 92.9271C57.2439 94.3167 58.7274 95.2573 60.4323 95.2573C62.1373 95.2573 63.6208 94.3167 64.3975 92.9271C66.2681 92.7241 67.7693 91.3015 68.0963 89.4709H68.1664V88.8133H68.1619C68.1624 88.7831 68.1664 88.7536 68.1664 88.7231V87.7485V87.0909V86.0267V85.3689V84.2145H68.8022V82.2943C72.902 81.6649 72.4702 76.542 73.0263 74.2595C73.6224 70.7743 78.9797 64.7087 81.3658 56.6067C81.3834 56.5513 81.3996 56.495 81.4167 56.4394Z" fill="white"></path>
<path d="M60.4323 28.0805C72.5497 28.0805 82.3727 37.9037 82.3727 50.0212C82.3727 52.1311 82.0689 54.169 81.513 56.1L81.5195 56.1005C81.4879 56.2153 81.4494 56.3256 81.4166 56.4396C81.3995 56.4952 81.3831 56.5514 81.3657 56.6069C78.9796 64.7088 73.6223 70.7745 73.0262 74.2595C72.4701 76.5422 72.9018 81.6648 68.8021 82.2945V84.2148H68.1662V85.3693V86.0267V87.0909V87.7486V88.7232C68.1662 88.7538 68.1624 88.7833 68.1617 88.8135H68.1662V89.4713H68.0961C67.7692 91.3016 66.268 92.7244 64.3974 92.9272C63.6207 94.3168 62.1372 95.2574 60.4322 95.2574C58.7273 95.2574 57.2438 94.3168 56.4669 92.9272C54.5963 92.7244 53.0952 91.3016 52.7682 89.4713H52.6984V88.8135H52.7027C52.7021 88.7833 52.6981 88.7538 52.6981 88.7232V84.2148H52.0622V82.291C47.9811 81.6498 48.4098 76.5389 47.8547 74.2595C47.2703 70.8429 42.1102 64.9454 39.6592 57.0811C38.9059 54.8649 38.4916 52.4922 38.4916 50.0212C38.4916 37.9037 48.3148 28.0805 60.4323 28.0805ZM60.4323 21.3809C44.6401 21.3809 31.792 34.229 31.792 50.0212C31.792 53.1322 32.2954 56.2046 33.2883 59.1551C34.8659 64.1793 37.2544 68.2834 39.1758 71.5845C39.9682 72.9464 41.0481 74.8019 41.27 75.4951C41.2921 75.6123 41.3172 75.729 41.3454 75.845C41.373 75.9788 41.4309 76.4524 41.473 76.798C41.6639 78.3627 41.9257 80.5057 42.8893 82.6391C43.598 84.2079 44.578 85.5229 45.7796 86.546C45.8453 86.7233 45.9185 86.8971 45.9986 87.067V88.7232C45.9986 88.7481 45.9986 88.7727 45.999 88.7974C45.999 88.803 45.999 88.808 45.999 88.8135V89.4713C45.999 90.4167 46.1948 91.3163 46.5482 92.132C47.5258 95.0937 49.7423 97.4938 52.5569 98.7336C54.631 100.769 57.4491 101.957 60.4322 101.957C63.4153 101.957 66.2337 100.769 68.3076 98.7336C71.1207 97.494 73.3369 95.0956 74.3149 92.1358C74.6694 91.3192 74.8657 90.418 74.8657 89.4713V88.8135C74.8657 88.7983 74.8657 88.7834 74.8657 88.7684C74.8657 88.7534 74.8657 88.7382 74.8657 88.7232V87.7486V87.0909V87.067C74.9423 86.9046 75.0126 86.7381 75.0763 86.569C76.286 85.5459 77.2725 84.2277 77.9859 82.6529C78.9544 80.5152 79.2165 78.3668 79.4079 76.7984C79.45 76.4526 79.5079 75.979 79.5417 75.8179C79.5697 75.7028 79.5909 75.6028 79.6111 75.494C79.834 74.7998 80.913 72.9462 81.7048 71.5854C83.6107 68.311 86.2204 63.8277 87.7872 58.517L87.8136 58.4307L87.8226 58.4011C87.8296 58.3778 87.8372 58.3521 87.8447 58.3272L87.8531 58.3C87.8966 58.1618 87.9387 58.0234 87.9778 57.8822C88.0012 57.7974 88.0228 57.7125 88.0429 57.6272C88.726 55.1449 89.0723 52.5879 89.0723 50.0212C89.0723 34.229 76.2246 21.3809 60.4323 21.3809Z" fill="white"></path>
<path d="M36.3983 49.4719H34.7078C34.3723 49.4719 34.1006 49.7435 34.1006 50.0788C34.1006 50.414 34.3723 50.686 34.7078 50.686H36.3983C36.7336 50.686 37.0053 50.414 37.0053 50.0788C37.0053 49.7435 36.7336 49.4719 36.3983 49.4719Z" fill="white"></path>
<path d="M36.3982 49.4718C36.7333 49.4718 37.0052 49.7434 37.0052 50.0787C37.0052 50.4141 36.7333 50.6859 36.3982 50.6859H34.7075C34.3722 50.6859 34.1005 50.4141 34.1005 50.0787C34.1005 49.7434 34.3722 49.4718 34.7075 49.4718H36.3982ZM36.3982 42.7722H34.7075C30.6787 42.7722 27.4009 46.0499 27.4009 50.0787C27.4009 54.1076 30.6787 57.3854 34.7075 57.3854H36.3982C40.427 57.3854 43.7048 54.1076 43.7048 50.0787C43.7048 46.0499 40.427 42.7722 36.3982 42.7722Z" fill="white"></path>
<path d="M86.1576 49.4719H84.467C84.1316 49.4719 83.8599 49.7435 83.8599 50.0788C83.8599 50.414 84.1316 50.686 84.467 50.686H86.1576C86.4928 50.686 86.7646 50.414 86.7646 50.0788C86.7646 49.7435 86.4928 49.4719 86.1576 49.4719Z" fill="white"></path>
<path d="M86.1573 49.4718C86.4926 49.4718 86.7643 49.7434 86.7643 50.0787C86.7643 50.4141 86.4926 50.6859 86.1573 50.6859H84.4668C84.1313 50.6859 83.8596 50.4141 83.8596 50.0787C83.8596 49.7434 84.1313 49.4718 84.4668 49.4718H86.1573ZM86.1573 42.7722H84.4668C80.4378 42.7722 77.1602 46.0499 77.1602 50.0787C77.1602 54.1076 80.4378 57.3854 84.4668 57.3854H86.1573C90.1861 57.3854 93.4637 54.1076 93.4637 50.0787C93.4637 46.0499 90.1861 42.7722 86.1573 42.7722Z" fill="white"></path>
<path d="M60.4332 26.651C60.7685 26.651 61.0404 26.3792 61.0404 26.044V24.3533C61.0404 24.018 60.7685 23.7461 60.4332 23.7461C60.0979 23.7461 59.8262 24.018 59.8262 24.3533V26.044C59.8262 26.3792 60.0979 26.651 60.4332 26.651Z" fill="white"></path>
<path d="M60.4331 23.7466C60.7684 23.7466 61.0403 24.0185 61.0403 24.3537V26.0443C61.0403 26.3797 60.7684 26.6513 60.4331 26.6513C60.0978 26.6513 59.8261 26.3797 59.8261 26.0443V24.3537C59.8261 24.0185 60.0978 23.7466 60.4331 23.7466ZM60.4331 17.0471C56.4043 17.0471 53.1265 20.3249 53.1265 24.3537V26.0443C53.1265 30.0732 56.4043 33.3509 60.4331 33.3509C64.4621 33.3509 67.7397 30.0732 67.7397 26.0443V24.3537C67.7397 20.3249 64.4621 17.0471 60.4331 17.0471Z" fill="white"></path>
<path d="M37.9397 37.5794L39.3979 38.4354C39.6871 38.6051 40.0591 38.5082 40.2288 38.2191C40.3985 37.9301 40.3017 37.558 40.0125 37.3883L38.5545 36.5323C38.2653 36.3626 37.8935 36.4595 37.7238 36.7487C37.554 37.0378 37.6509 37.4099 37.9397 37.5794Z" fill="white"></path>
<path d="M38.2474 36.4491C38.352 36.4491 38.4578 36.4761 38.5544 36.5327L40.0123 37.3886C40.3015 37.5584 40.3983 37.9304 40.2286 38.2194C40.1156 38.4121 39.9127 38.5193 39.7045 38.5193C39.6001 38.5193 39.4942 38.4923 39.3977 38.4357L37.9397 37.5798C37.6507 37.4102 37.5539 37.0382 37.7236 36.749C37.8367 36.5563 38.0394 36.4491 38.2474 36.4491ZM38.2474 29.7495C35.6665 29.7495 33.2518 31.1322 31.9456 33.3581C30.9579 35.0409 30.6847 37.0076 31.1759 38.8962C31.6676 40.7859 32.8661 42.371 34.5506 43.3588L36.0058 44.2131C37.1276 44.8714 38.4061 45.2189 39.7043 45.2189C42.2855 45.2189 44.7003 43.8362 46.0067 41.6103C46.9944 39.9282 47.2678 37.9608 46.7761 36.0717C46.2843 34.1823 45.086 32.5978 43.402 31.6099L41.9459 30.7552C40.8256 30.0974 39.5465 29.7495 38.2474 29.7495Z" fill="white"></path>
<path d="M82.9249 62.5784L81.4668 61.7226C81.1776 61.5527 80.8056 61.6498 80.6358 61.9388C80.4661 62.2279 80.563 62.6 80.8522 62.7697L82.3102 63.6255C82.5992 63.7952 82.9712 63.6983 83.1409 63.4092C83.3106 63.1201 83.2139 62.7481 82.9249 62.5784Z" fill="white"></path>
<path d="M81.1602 61.639C81.2647 61.639 81.3705 61.6662 81.467 61.7228L82.925 62.5786C83.2142 62.7483 83.3109 63.1203 83.1412 63.4093C83.0282 63.602 82.8254 63.709 82.6172 63.709C82.5127 63.709 82.4069 63.6823 82.3104 63.6255L80.8524 62.7699C80.5632 62.6 80.4664 62.2281 80.6361 61.9389C80.7492 61.7464 80.952 61.639 81.1602 61.639ZM81.1604 54.9395C78.5799 54.9395 76.1653 56.3218 74.8589 58.5468C73.8705 60.2299 73.5971 62.1974 74.0888 64.0866C74.5801 65.975 75.7776 67.5592 77.4603 68.5472L78.9193 69.4035C80.0396 70.0609 81.3184 70.4087 82.6172 70.4087C85.1979 70.4087 87.6126 69.0263 88.9188 66.8007C89.9067 65.1185 90.1803 63.1512 89.6888 61.2624C89.1975 59.3735 87.9997 57.7889 86.3164 56.8009L84.8586 55.9451C83.7388 55.2875 82.4597 54.9395 81.1604 54.9395Z" fill="white"></path>
<path d="M72.2921 29.8758C72.5813 30.0455 72.953 29.9486 73.1227 29.6596L73.9787 28.2016C74.1484 27.9125 74.0517 27.5404 73.7625 27.3707C73.4733 27.201 73.1015 27.2979 72.9318 27.587L72.0758 29.045C71.9061 29.3342 72.0029 29.7061 72.2921 29.8758Z" fill="white"></path>
<path d="M73.4557 27.2872C73.56 27.2872 73.6658 27.3142 73.7624 27.3708C74.0515 27.5405 74.1482 27.9127 73.9785 28.2017L73.1225 29.6597C73.0096 29.8522 72.8069 29.9596 72.5987 29.9596C72.4943 29.9596 72.3885 29.9325 72.2919 29.8759C72.0028 29.7061 71.9059 29.3343 72.0756 29.0451L72.9316 27.5871C73.0447 27.3945 73.2473 27.2872 73.4557 27.2872ZM73.4557 20.5876C70.874 20.5876 68.4591 21.9709 67.153 24.1973L66.2981 25.6532C65.3097 27.3371 65.0366 29.3044 65.5283 31.1931C66.02 33.0822 67.2181 34.6665 68.9019 35.6542C70.0203 36.3111 71.2994 36.659 72.5987 36.659C75.1798 36.659 77.5943 35.2763 78.9006 33.0506L79.756 31.5935C81.7953 28.1194 80.6284 23.6336 77.1551 21.594C76.0328 20.9353 74.7542 20.5876 73.4557 20.5876Z" fill="white"></path>
<path d="M82.3102 36.5323L80.8522 37.3883C80.563 37.558 80.4661 37.9301 80.6358 38.2191C80.8056 38.5082 81.1776 38.6051 81.4668 38.4354L82.9249 37.5794C83.2139 37.4099 83.3106 37.0378 83.1409 36.7487C82.9712 36.4595 82.5992 36.3626 82.3102 36.5323Z" fill="white"></path>
<path d="M82.6172 36.4491C82.8254 36.4491 83.0282 36.5563 83.1412 36.749C83.3109 37.0382 83.2142 37.4102 82.925 37.5798L81.467 38.4357C81.3705 38.4923 81.2647 38.5193 81.1604 38.5193C80.952 38.5193 80.7492 38.4121 80.6361 38.2194C80.4664 37.9304 80.5632 37.5584 80.8524 37.3886L82.3104 36.5327C82.4071 36.4761 82.5127 36.4491 82.6172 36.4491ZM82.6172 29.7495C81.3175 29.7495 80.0379 30.0977 78.9167 30.7565L77.4608 31.611C75.7788 32.5978 74.5805 34.1823 74.0888 36.0717C73.5971 37.9608 73.8705 39.9282 74.8588 41.6115C76.1643 43.8362 78.5792 45.2189 81.1604 45.2189C82.4587 45.2189 83.7371 44.8714 84.8576 44.2139L86.3171 43.3571C87.9987 42.371 89.1971 40.7859 89.6888 38.8962C90.1802 37.0076 89.9069 35.0409 88.9192 33.3581C87.6135 31.1326 85.1985 29.7495 82.6172 29.7495Z" fill="white"></path>
<path d="M39.3993 61.7226L37.9412 62.5784C37.6524 62.7481 37.5555 63.1201 37.7252 63.4092C37.8949 63.6983 38.2668 63.7952 38.556 63.6255L40.014 62.7697C40.3031 62.6 40.4 62.2279 40.2303 61.9388C40.0606 61.6498 39.6885 61.5527 39.3993 61.7226Z" fill="white"></path>
<path d="M39.7061 61.639C39.9143 61.639 40.1171 61.7464 40.2302 61.9389C40.3999 62.2281 40.3031 62.6 40.0139 62.7699L38.5559 63.6255C38.4594 63.6823 38.3536 63.709 38.2491 63.709C38.0409 63.709 37.8382 63.602 37.7251 63.4093C37.5554 63.1203 37.6523 62.7483 37.9413 62.5786L39.3993 61.7228C39.4958 61.6662 39.6016 61.639 39.7061 61.639ZM39.7061 54.9395C38.4067 54.9395 37.1276 55.2875 36.0067 55.9458L34.5497 56.8011C32.8666 57.7889 31.6688 59.3735 31.1775 61.2624C30.686 63.1512 30.9596 65.1185 31.9478 66.8014C33.2544 69.0265 35.669 70.4087 38.2491 70.4087C39.5474 70.4087 40.8258 70.0613 41.9461 69.404L43.4049 68.5477C45.0887 67.5592 46.2862 65.975 46.7777 64.0866C47.2694 62.1974 46.9957 60.2299 46.0075 58.5468C44.7008 56.3216 42.2862 54.9395 39.7061 54.9395Z" fill="white"></path>
<path d="M47.7432 29.6596C47.9129 29.9486 48.2849 30.0455 48.5741 29.8758C48.8631 29.7061 48.96 29.3342 48.7902 29.045L47.9343 27.587C47.7646 27.2979 47.3927 27.201 47.1035 27.3707C46.8143 27.5404 46.7177 27.9125 46.8874 28.2016L47.7432 29.6596Z" fill="white"></path>
<path d="M47.4101 27.2872C47.6183 27.2872 47.8212 27.3945 47.9341 27.5871L48.7901 29.0451C48.9598 29.3343 48.8629 29.7061 48.5739 29.8759C48.4773 29.9325 48.3714 29.9596 48.267 29.9596C48.0588 29.9596 47.8559 29.8522 47.743 29.6597L46.8872 28.2017C46.7175 27.9127 46.8142 27.5405 47.1035 27.3708C47.2 27.3142 47.3057 27.2872 47.4101 27.2872ZM47.4101 20.5876C46.1112 20.5876 44.8324 20.9355 43.7118 21.5933C42.0287 22.5815 40.8312 24.1655 40.3397 26.0542C39.848 27.9433 40.1217 29.9107 41.11 31.5942L41.9651 33.0509C43.2715 35.2765 45.6863 36.659 48.267 36.659C49.5665 36.659 50.8457 36.3111 51.9667 35.6527C53.6476 34.6665 54.8457 33.0822 55.3376 31.1931C55.8293 29.3044 55.556 27.3371 54.5681 25.654L53.7114 24.1954C52.4068 21.9709 49.9917 20.5876 47.4101 20.5876Z" fill="white"></path>
<path d="M60.7693 95.2587H60.0979C57.7748 95.2587 55.8916 93.3755 55.8916 91.0526V89.1527C55.8916 86.8297 57.7748 84.9465 60.0979 84.9465H60.7693C63.0922 84.9465 64.9754 86.8297 64.9754 89.1527V91.0526C64.9754 93.3755 63.0922 95.2587 60.7693 95.2587Z" fill="#484B60"></path>
<path d="M64.2504 92.955H56.6178C54.4541 92.955 52.7002 91.2009 52.7002 89.0374V79.3129C52.7002 77.1492 54.4541 75.3953 56.6178 75.3953H64.2504C66.4141 75.3953 68.1682 77.1492 68.1682 79.3129V89.0374C68.1682 91.2009 66.4141 92.955 64.2504 92.955Z" fill="#E2E8ED"></path>
<path d="M68.8036 84.216H52.064V82.2148H68.8036V84.216Z" fill="#AAD1DF"></path>
<path d="M81.5211 56.1019L81.5145 56.1014C82.0704 54.1703 82.3745 52.1325 82.3745 50.0228C82.3745 37.9053 72.5512 28.082 60.4339 28.082C48.3164 28.082 38.4932 37.9053 38.4932 50.0228C38.4932 52.4935 38.9077 54.8663 39.6608 57.0825C42.1116 64.9467 47.2719 70.8443 47.8563 74.261C48.4492 76.6951 47.9185 82.3601 52.9591 82.3601H59.0307H60.0997H60.7842H61.8532H67.9249C72.9654 82.3601 72.4347 76.6951 73.0277 74.261C73.6239 70.7759 78.9812 64.7102 81.3673 56.6082C81.3849 56.5528 81.4011 56.4967 81.4182 56.441C81.451 56.327 81.4895 56.2167 81.5211 56.1019Z" fill="#FFC15B"></path>
<path d="M65.8591 82.36H65.4022V70.114C65.4022 67.3745 63.1737 65.1459 60.4341 65.1459C57.6946 65.1459 55.4661 67.3745 55.4661 70.114V82.36H55.0093V70.114C55.0093 67.123 57.443 64.6892 60.4341 64.6892C63.4253 64.6892 65.8591 67.123 65.8591 70.114V82.36Z" fill="#DB9A3D"></path>
<path d="M62.7815 65.2756H62.3247V60.2812C62.3247 59.2386 61.4766 58.3904 60.4339 58.3904C59.3913 58.3904 58.5431 59.2386 58.5431 60.2812V65.2756H58.0864V60.2812C58.0864 58.9871 59.1397 57.9336 60.4339 57.9336C61.7282 57.9336 62.7815 58.9871 62.7815 60.2812V65.2756Z" fill="#DB9A3D"></path>
<path d="M55.7559 67.5987L48.2397 52.1233L48.6531 52.1715C53.1741 52.6918 57.0912 51.6813 60.2923 49.1595L60.4327 49.0496L60.5736 49.1583C63.8395 51.6784 67.7573 52.6901 72.2132 52.1715L72.6279 52.1228L65.1117 67.5987L64.7013 67.3988L71.8546 52.6687C67.5069 53.091 63.6687 52.0662 60.4349 49.6276C57.2607 52.071 53.4178 53.0927 49.0123 52.6687L56.1663 67.3988L55.7559 67.5987Z" fill="#DB9A3D"></path>
<path d="M60.6619 58.1619H60.2051V49.3391H60.6619V58.1619Z" fill="#DB9A3D"></path>
<path d="M73.9581 36.0113C76.1034 38.1564 77.0731 40.6645 76.1244 41.6132C75.1758 42.562 72.6676 41.5921 70.5225 39.447C68.3772 37.3018 67.4075 34.7938 68.3562 33.8449C69.305 32.8962 71.813 33.866 73.9581 36.0113Z" fill="#FFD89E"></path>
<path d="M68.1678 86.0034H52.7002V85.3943H68.1678V86.0034Z" fill="#AAD1DF"></path>
<path d="M68.1678 87.7255H52.7002V87.1165H68.1678V87.7255Z" fill="#AAD1DF"></path>
<path d="M68.1678 89.4475H52.7002V88.8386H68.1678V89.4475Z" fill="#AAD1DF"></path>
<path d="M36.3988 49.4717H34.7081C34.3728 49.4717 34.1011 49.7432 34.1011 50.0785C34.1011 50.4138 34.3728 50.6857 34.7081 50.6857H36.3988C36.7341 50.6857 37.0058 50.4138 37.0058 50.0785C37.0058 49.7432 36.7341 49.4717 36.3988 49.4717Z" fill="#FFC15B"></path>
<path d="M86.1581 49.4717H84.4674C84.1321 49.4717 83.8604 49.7432 83.8604 50.0785C83.8604 50.4138 84.1321 50.6857 84.4674 50.6857H86.1581C86.4933 50.6857 86.7651 50.4138 86.7651 50.0785C86.7651 49.7432 86.4933 49.4717 86.1581 49.4717Z" fill="#FFC15B"></path>
<path d="M60.4332 23.7466C60.0979 23.7466 59.8262 24.0185 59.8262 24.3538V26.0445C59.8262 26.3797 60.0979 26.6515 60.4332 26.6515C60.7685 26.6515 61.0404 26.3797 61.0404 26.0445V24.3538C61.0404 24.0185 60.7685 23.7466 60.4332 23.7466Z" fill="#FFC15B"></path>
<path d="M40.0135 37.3883L38.5556 36.5323C38.2664 36.3626 37.8945 36.4595 37.7246 36.7487C37.5551 37.0378 37.6518 37.4099 37.941 37.5794L39.3989 38.4354C39.6881 38.6051 40.0602 38.5082 40.2299 38.2191C40.3996 37.9301 40.3027 37.558 40.0135 37.3883Z" fill="#FFC15B"></path>
<path d="M82.9257 62.5774L81.4677 61.7216C81.1785 61.5517 80.8065 61.6488 80.6369 61.9378C80.4671 62.227 80.5639 62.599 80.8531 62.7687L82.3111 63.6245C82.6003 63.7942 82.9721 63.6974 83.142 63.4082C83.3115 63.1192 83.2149 62.7471 82.9257 62.5774Z" fill="#FFC15B"></path>
<path d="M73.763 27.3697C73.4738 27.2 73.1019 27.2969 72.9322 27.5861L72.0763 29.044C71.9066 29.3332 72.0034 29.7051 72.2926 29.8748C72.5818 30.0445 72.9537 29.9477 73.1232 29.6586L73.9791 28.2007C74.149 27.9115 74.0522 27.5394 73.763 27.3697Z" fill="#FFC15B"></path>
<path d="M82.3111 36.5323L80.8531 37.3883C80.5639 37.558 80.4671 37.9301 80.6369 38.2191C80.8065 38.5082 81.1785 38.6051 81.4677 38.4354L82.9257 37.5794C83.2149 37.4099 83.3115 37.0378 83.142 36.7487C82.9721 36.4595 82.6003 36.3626 82.3111 36.5323Z" fill="#FFC15B"></path>
<path d="M39.3989 61.7216L37.941 62.5774C37.6518 62.7471 37.5551 63.1192 37.7246 63.4082C37.8945 63.6974 38.2664 63.7942 38.5556 63.6245L40.0135 62.7687C40.3027 62.599 40.3996 62.227 40.2299 61.9378C40.0602 61.6488 39.6881 61.5517 39.3989 61.7216Z" fill="#FFC15B"></path>
<path d="M47.9344 27.5861C47.7645 27.2969 47.3927 27.2 47.1035 27.3697C46.8145 27.5394 46.7176 27.9115 46.8873 28.2007L47.7431 29.6586C47.9128 29.9477 48.2849 30.0445 48.574 29.8748C48.8631 29.7051 48.9599 29.3332 48.7902 29.044L47.9344 27.5861Z" fill="#FFC15B"></path>
</svg>