<svg width="120" height="120" viewBox="0 0 120 120" fill="none" xmlns="http://www.w3.org/2000/svg">
<rect width="120" height="120" rx="16" fill="#F2F2F5"></rect>
<path d="M21.9168 95.4389L97.0666 96.0598C97.0857 96.0598 97.1051 96.06 97.1243 96.06C98.9632 96.06 100.728 95.3337 102.035 94.0378C103.356 92.7281 104.098 90.9454 104.098 89.0858V83.927C104.098 82.2896 103.534 80.7838 102.589 79.5939V41.439C103.534 40.2491 104.098 38.7433 104.098 37.1059V32.568C104.098 28.7387 101.011 25.6255 97.1816 25.5938L22.0319 24.9731C22.0128 24.9729 21.9934 24.9729 21.9744 24.9729C20.1354 24.9729 18.37 25.6993 17.0632 26.9953C15.7428 28.3048 15 30.0875 15 31.9473V37.1059C15 38.7433 15.5645 40.2491 16.5091 41.4392V79.5937C15.5645 80.7837 15 82.2896 15 83.927V88.4649C15 92.2943 18.0875 95.4073 21.9168 95.4389Z" fill="#DDCAC6"></path>
<path d="M98.0259 36.0722V31.5343L22.876 30.9136V36.0722H24.3851V82.8933H22.876V87.4312L98.0259 88.0521V82.8933H96.5168V36.0722H98.0259Z" fill="white"></path>
<path d="M22.8756 30.9136L98.0255 31.5343V36.0722H96.5163V82.8933H98.0255V88.0521L22.8756 87.4314V82.8933H24.3847V36.0722H22.8756V30.9136ZM22.8756 23.9392C21.0366 23.9392 19.2712 24.6657 17.9644 25.9616C16.644 27.2713 15.9014 29.054 15.9014 30.9136V36.0722C15.9014 37.7098 16.4659 39.2156 17.4105 40.4055V78.56C16.4659 79.7501 15.9014 81.2559 15.9014 82.8933V87.4314C15.9014 91.2606 18.9888 94.3737 22.818 94.4052L97.9678 95.0261C97.987 95.0263 98.0064 95.0265 98.0257 95.0265C99.8646 95.0265 101.63 94.3001 102.937 93.0041C104.257 91.6946 105 89.9117 105 88.0521V82.8933C105 81.2559 104.435 79.7501 103.491 78.5602V40.4053C104.435 39.2154 105 37.7098 105 36.0722V31.5343C105 27.705 101.912 24.592 98.083 24.5603L22.9333 23.9394C22.9142 23.9394 22.8948 23.9392 22.8756 23.9392Z" fill="white"></path>
<path d="M96.576 85.8756H24.4443V31.5352H96.576V85.8756Z" fill="#FAF2F2"></path>
<line x1="32.4213" y1="33.5786" x2="32.4213" y2="85.4366" stroke="#FCAA84" stroke-width="0.210805"></line>
<line x1="46.475" y1="33.5786" x2="46.475" y2="85.4366" stroke="#FCAA84" stroke-width="0.210805"></line>
<line x1="60.5287" y1="33.5786" x2="60.5287" y2="85.4366" stroke="#FCAA84" stroke-width="0.210805"></line>
<line x1="74.5825" y1="33.5786" x2="74.5825" y2="85.4366" stroke="#FCAA84" stroke-width="0.210805"></line>
<line x1="88.6357" y1="33.5786" x2="88.6357" y2="85.4366" stroke="#FCAA84" stroke-width="0.210805"></line>
<line x1="96.5405" y1="38.4623" x2="24.4087" y2="38.4623" stroke="#FCAA84" stroke-width="0.210805"></line>
<line x1="96.541" y1="52.516" x2="24.4092" y2="52.516" stroke="#FCAA84" stroke-width="0.210805"></line>
<line x1="96.5415" y1="66.5698" x2="24.4097" y2="66.5697" stroke="#FCAA84" stroke-width="0.210805"></line>
<line x1="96.5405" y1="80.6235" x2="24.4087" y2="80.6235" stroke="#FCAA84" stroke-width="0.210805"></line>
<path d="M98.0267 36.0731H22.877V30.9143L98.0267 31.5351V36.0731Z" fill="#DF8C9A"></path>
<path d="M98.0267 88.0526L22.877 87.4318V82.8938H98.0267V88.0526Z" fill="#DF8C9A"></path>
<path d="M89.9146 82.9076H82.647C82.0924 82.9076 81.6431 82.5754 81.6431 82.1656V81.9631C81.6431 81.5533 82.0924 81.2212 82.647 81.2212H89.9146C90.469 81.2212 90.9185 81.5533 90.9185 81.9631V82.1656C90.9185 82.5754 90.469 82.9076 89.9146 82.9076Z" fill="white"></path>
<g clip-path="url(#clip0_7_136)">
<path d="M38.9907 56.3096C39.1136 56.2559 39.2749 56.2443 39.4747 56.2751C39.6821 56.2981 39.8165 56.3404 39.878 56.4018C40.0317 56.5555 40.0701 56.7091 39.9932 56.8628C39.9241 57.0088 39.7858 57.0625 39.5784 57.0241C39.3786 56.9857 39.0329 57.0049 38.5412 57.0817L37.7806 57.197L37.7576 57.7732C37.7576 57.7732 37.7576 57.777 37.7576 57.7847C37.7422 58.1074 37.7883 58.2956 37.8959 58.3494C38.0111 58.3955 38.4145 58.3878 39.1059 58.3263C39.1289 58.3263 39.1481 58.3225 39.1635 58.3148C39.8165 58.261 40.1968 58.2495 40.3044 58.2802C40.3966 58.3187 40.4427 58.4224 40.4427 58.5914C40.4427 58.7374 40.3466 58.8334 40.1546 58.8795C39.9702 58.9179 39.467 58.9602 38.6449 59.0063C38.3991 59.0216 38.2147 59.0331 38.0918 59.0408C37.9765 59.0408 37.8421 59.037 37.6884 59.0293C37.5348 59.0216 37.4272 59.0139 37.3658 59.0063C37.312 58.9909 37.2467 58.9563 37.1699 58.9025C37.093 58.8488 37.0431 58.8027 37.02 58.7642C37.0047 58.7182 36.9778 58.6375 36.9394 58.5222C36.9086 58.3993 36.8894 58.2879 36.8818 58.188C36.8741 58.0882 36.8587 57.9422 36.8357 57.7501C36.7819 57.1202 36.778 56.7744 36.8241 56.713C36.8856 56.6592 37.2428 56.5862 37.8959 56.494C38.5796 56.3941 38.9446 56.3327 38.9907 56.3096ZM41.4568 56.6438C41.7487 56.5286 41.9408 56.5401 42.033 56.6784C42.1482 56.8551 42.2327 57.5427 42.2865 58.7412L42.298 59.0639L42.3672 60.7233L42.1367 60.7694C41.96 60.7925 41.8064 60.7733 41.6757 60.7118C41.5682 60.6734 41.499 60.5966 41.4683 60.4813C41.4453 60.3584 41.4184 60.0665 41.3876 59.6055C41.3723 59.3212 41.3339 58.6759 41.2724 57.6695C41.2494 57.2162 41.2455 56.9473 41.2609 56.8628C41.2762 56.7706 41.3416 56.6976 41.4568 56.6438ZM38.8293 59.7899C39.7205 59.6823 40.3082 59.6439 40.5925 59.6746C40.8844 59.7054 41.0304 59.8129 41.0304 59.9973C41.0304 60.0818 40.9497 60.1471 40.7884 60.1932C40.6347 60.2393 40.3582 60.2854 39.9587 60.3315L39.2903 60.3891L39.3364 60.9999C39.3364 61.0383 39.3402 61.0921 39.3479 61.1612C39.3786 61.6837 39.3825 61.9871 39.3594 62.0716C39.3364 62.1561 39.2288 62.2061 39.0367 62.2215C39.0214 62.2215 39.0099 62.2215 39.0022 62.2215C38.8793 62.2291 38.7832 62.2291 38.7141 62.2215C38.6526 62.2138 38.5988 62.1869 38.5527 62.1408C38.5066 62.0947 38.4759 62.0332 38.4605 61.9564C38.4452 61.8796 38.4375 61.7759 38.4375 61.6453C38.4375 61.4301 38.4221 61.192 38.3914 60.9308L38.3223 60.5735L37.6539 60.6081C37.3235 60.6388 37.0393 60.6273 36.8011 60.5735C36.5629 60.5197 36.4438 60.4468 36.4438 60.3546C36.4438 60.2393 36.5207 60.1433 36.6743 60.0665C36.828 59.9896 37.0277 59.9474 37.2736 59.9397C37.6423 59.9397 38.1609 59.8898 38.8293 59.7899ZM40.4081 61.2304C40.5848 61.023 40.773 60.973 40.9728 61.0806C41.1725 61.1881 41.2455 61.3725 41.1917 61.6337C41.1764 61.6875 41.1648 61.7298 41.1572 61.7605C41.1572 61.7835 41.1648 61.8143 41.1802 61.8527C41.1956 61.8911 41.2109 61.9257 41.2263 61.9564C41.2494 61.9871 41.2916 62.0332 41.3531 62.0947C41.4222 62.1485 41.4875 62.2022 41.549 62.256C41.6104 62.3021 41.7065 62.3713 41.8371 62.4635C42.129 62.6786 42.3173 62.8322 42.4018 62.9244C42.4863 63.0243 42.5247 63.128 42.517 63.2356C42.494 63.3892 42.4286 63.4776 42.3211 63.5006C42.2135 63.516 42.0215 63.4584 41.7449 63.3278C41.4683 63.1972 41.2609 63.0665 41.1226 62.9359C40.9459 62.7746 40.8191 62.7323 40.7423 62.8092C40.6732 62.8937 40.5733 63.1933 40.4427 63.708C40.3812 63.9308 40.3274 64.0576 40.2813 64.0883C40.2352 64.1191 40.1046 64.1344 39.8895 64.1344C39.5899 64.1344 39.4401 64.096 39.4401 64.0192C39.4401 63.8348 39.5745 63.3508 39.8434 62.5672C40.12 61.7835 40.3082 61.3379 40.4081 61.2304Z" fill="#484B60"></path>
<path d="M39.3419 71.1675C39.9104 71.1137 40.2792 71.1098 40.4482 71.1559C40.6172 71.1943 40.7017 71.2981 40.7017 71.4671C40.7017 71.5823 40.6364 71.663 40.5058 71.7091C40.3752 71.7552 40.0794 71.7974 39.6185 71.8359C39.3957 71.8589 39.2267 71.8743 39.1114 71.8819C39.0039 71.8896 38.8963 71.905 38.7887 71.928C38.6812 71.9511 38.6082 71.978 38.5698 72.0087C38.5314 72.0318 38.493 72.0779 38.4545 72.147C38.4238 72.2085 38.4046 72.2699 38.3969 72.3314C38.3969 72.3928 38.3969 72.485 38.3969 72.608C38.3969 72.8615 38.4123 73.0228 38.443 73.092C38.4738 73.1534 38.5506 73.1957 38.6735 73.2187C38.8502 73.2725 39.2651 73.261 39.9181 73.1842C40.5404 73.0997 40.9168 73.0766 41.0474 73.115C41.1704 73.1688 41.2203 73.2725 41.1973 73.4262C41.1819 73.5798 41.1089 73.672 40.9783 73.7027C40.7478 73.7642 40.1947 73.8065 39.3188 73.8295C38.443 73.8526 37.9552 73.8372 37.8553 73.7834C37.7785 73.7373 37.7055 73.6528 37.6363 73.5299C37.5672 73.3993 37.5096 73.2456 37.4635 73.0689C37.4251 72.8922 37.4059 72.7117 37.4059 72.5273C37.4059 72.2814 37.3713 72.1432 37.3021 72.1124C37.21 72.051 37.1831 71.9626 37.2215 71.8474C37.2599 71.7245 37.3482 71.6361 37.4865 71.5823C37.9936 71.3826 38.612 71.2443 39.3419 71.1675ZM40.356 74.9243C41.3624 74.763 41.8964 74.69 41.9578 74.7053C42.0116 74.7207 42.0385 74.8206 42.0385 75.005C42.0385 75.1432 42.0078 75.2316 41.9463 75.27C41.8925 75.3084 41.7158 75.3545 41.4162 75.4083C40.9937 75.5005 40.7478 75.5773 40.6787 75.6388C40.6095 75.7079 40.6134 75.9538 40.6902 76.3763C40.767 76.8219 40.8054 77.1561 40.8054 77.3789C40.8054 77.5556 40.7862 77.6593 40.7478 77.69C40.7171 77.7208 40.5942 77.7323 40.3791 77.7246C40.2869 77.7169 40.2177 77.7093 40.1716 77.7016C40.1332 77.6939 40.0871 77.6708 40.0333 77.6324C39.9872 77.594 39.9527 77.5594 39.9296 77.5287C39.9143 77.498 39.895 77.4288 39.872 77.3213C39.8489 77.2137 39.8297 77.11 39.8144 77.0101C39.799 76.9026 39.7836 76.7412 39.7683 76.5261C39.7145 76.0805 39.6646 75.8424 39.6185 75.8116C39.5724 75.7886 39.1383 75.8308 38.3163 75.9384C37.7862 76.0075 37.4443 76.0421 37.2906 76.0421C37.137 76.0421 37.0371 76.0075 36.991 75.9384C36.8834 75.7694 36.8988 75.6388 37.0371 75.5466C37.1831 75.4544 37.4981 75.3737 37.9821 75.3046C38.1895 75.2585 38.9808 75.1317 40.356 74.9243Z" fill="#484B60"></path>
<path d="M25.0202 71.1673C25.7039 71.0982 26.1303 71.1443 26.2993 71.3056C26.3992 71.3901 26.476 71.6321 26.5298 72.0316C26.5913 72.4235 26.622 72.8652 26.622 73.3569C26.622 73.7871 26.6067 74.0522 26.5759 74.1521C26.5529 74.2519 26.4722 74.3633 26.3339 74.4863C26.1418 74.6476 25.9344 74.7552 25.7116 74.8089L25.4005 74.8781L25.4696 75.5465C25.508 76.0228 25.5272 76.3071 25.5272 76.3992C25.5272 76.5068 25.5772 76.5683 25.677 76.5836C25.7769 76.599 26.0765 76.599 26.5759 76.5836L27.6246 76.526V76.7911C27.6246 76.8909 27.6054 76.9639 27.567 77.01C27.5363 77.0484 27.4633 77.0753 27.348 77.0907C26.9639 77.1675 26.2955 77.2635 25.3429 77.3788C24.3902 77.494 23.8447 77.5478 23.7064 77.5401C23.5605 77.5248 23.4683 77.4979 23.4299 77.4595C23.3915 77.421 23.3722 77.3365 23.3722 77.2059C23.3722 77.06 23.3991 76.9716 23.4529 76.9409C23.5067 76.9101 23.6488 76.8756 23.8793 76.8372C24.2788 76.7834 24.5054 76.7258 24.5592 76.6643C24.613 76.5952 24.6207 76.3685 24.5823 75.9844C24.5362 75.5618 24.4786 75.2891 24.4094 75.1662C24.3479 75.0356 24.225 74.9511 24.0406 74.9126C23.91 74.8819 23.8025 74.8358 23.718 74.7744C23.6335 74.7129 23.5605 74.6284 23.499 74.5208C23.4452 74.4133 23.3915 74.2788 23.3377 74.1175C23.2608 73.8255 23.2263 73.3646 23.234 72.7346C23.2416 72.1046 23.2839 71.7359 23.3607 71.6283C23.5067 71.4286 24.0598 71.2749 25.0202 71.1673ZM25.654 72.2621C25.6079 72.0086 25.5349 71.8626 25.435 71.8242C25.3352 71.7781 25.1047 71.8012 24.7436 71.8934C24.5439 71.9395 24.4132 71.9932 24.3518 72.0547C24.2903 72.1085 24.2404 72.2122 24.202 72.3658C24.1559 72.5349 24.1405 72.8268 24.1559 73.2417C24.1789 73.6488 24.2212 73.9293 24.2826 74.0829C24.3672 74.3057 24.5976 74.3787 24.9741 74.3019C25.2583 74.2558 25.4543 74.1559 25.5618 74.0023C25.6694 73.8486 25.7193 73.6104 25.7116 73.2878C25.7116 72.9958 25.6924 72.6539 25.654 72.2621Z" fill="#484B60"></path>
<path d="M50.968 57.2197C51.8439 57.1045 52.324 57.0622 52.4085 57.093C52.4393 57.1006 52.4854 57.1391 52.5468 57.2082C52.6313 57.285 52.6698 57.3887 52.6621 57.5193C52.6544 57.65 52.6006 57.8843 52.5007 58.2223C52.4239 58.4451 52.4162 58.5796 52.4777 58.6256C52.5315 58.6794 52.785 58.7486 53.2383 58.8331C53.6685 58.9099 53.972 58.9906 54.1487 59.0751C54.3254 59.1519 54.4137 59.2479 54.4137 59.3632C54.4137 59.4707 54.3139 59.5284 54.1141 59.536C53.922 59.5437 53.5417 59.5053 52.9732 59.4208C52.7812 59.3978 52.6467 59.3824 52.5699 59.3747C52.4931 59.3593 52.4047 59.3593 52.3048 59.3747C52.205 59.3901 52.1397 59.4131 52.1089 59.4439C52.0782 59.4669 52.0321 59.5284 51.9706 59.6282C51.9169 59.7204 51.8746 59.8165 51.8439 59.9163C51.8131 60.0085 51.767 60.1583 51.7056 60.3658C51.6057 60.6884 51.5058 60.9074 51.406 61.0226C51.3061 61.1379 51.1755 61.1917 51.0141 61.184C50.9988 61.1763 50.9527 61.1725 50.8759 61.1725C50.8067 61.1648 50.7645 61.1571 50.7491 61.1494C50.7107 61.1494 50.6799 61.1302 50.6569 61.0918C50.6339 61.0534 50.6223 61.0111 50.6223 60.965C50.6223 60.9036 50.6531 60.7576 50.7145 60.5271C50.7837 60.2966 50.872 60.0354 50.9796 59.7435C51.0871 59.4515 51.1908 59.1865 51.2907 58.9483C51.429 58.6103 51.5135 58.3491 51.5442 58.1647L51.6134 57.842L51.0257 57.9112C50.6185 57.9649 50.2497 57.9918 49.9194 57.9918C49.6812 57.9918 49.5275 57.9803 49.4584 57.9573C49.3969 57.9342 49.3662 57.8804 49.3662 57.7959C49.3662 57.65 49.4738 57.5386 49.6889 57.4617C49.9117 57.3849 50.3381 57.3042 50.968 57.2197ZM55.1513 57.8074C55.1897 57.746 55.2358 57.7076 55.2896 57.6922C55.351 57.6692 55.4509 57.6615 55.5892 57.6692L55.9579 57.6922V58.6833C55.9579 59.3209 55.981 59.6551 56.0271 59.6859C56.0578 59.7243 56.2883 59.7127 56.7185 59.6513C57.0719 59.5975 57.3216 59.5975 57.4676 59.6513C57.6212 59.6974 57.6981 59.8011 57.6981 59.9624C57.6981 60.0777 57.6481 60.1545 57.5483 60.1929C57.4561 60.2313 57.1756 60.2774 56.707 60.3312L55.9579 60.3888V61.3914V62.394L55.5661 62.4286C55.3126 62.4439 55.1551 62.4132 55.0936 62.3364C55.0475 62.2519 55.0322 61.5105 55.0475 60.1122C55.0706 58.7063 55.1052 57.9381 55.1513 57.8074ZM52.374 59.9048C52.4662 59.8126 52.5929 59.7627 52.7543 59.755C52.9156 59.7396 53.0232 59.7742 53.0769 59.8587C53.1154 59.9355 53.1384 60.2121 53.1461 60.6884C53.1461 61.1725 53.173 61.4413 53.2268 61.4951C53.2728 61.5335 53.4073 61.5259 53.6301 61.4721C53.8298 61.4029 54.0565 61.353 54.31 61.3223C54.4637 61.3069 54.5597 61.3146 54.5981 61.3453C54.6365 61.3684 54.6557 61.4337 54.6557 61.5412C54.6557 61.6795 54.5251 61.8101 54.2639 61.933C54.0104 62.0483 53.511 62.2058 52.7658 62.4055C52.205 62.5438 51.8439 62.6168 51.6825 62.6245C51.5212 62.6322 51.4213 62.5707 51.3829 62.4401C51.3522 62.3325 51.3714 62.248 51.4405 62.1866C51.5097 62.1174 51.6633 62.0368 51.9015 61.9446L52.2126 61.8293V60.942C52.2126 60.3581 52.2664 60.0124 52.374 59.9048Z" fill="#484B60"></path>
<path d="M69.2351 56.1482C69.2965 56.056 69.4502 56.0215 69.696 56.0445C69.9496 56.0676 70.0994 56.1252 70.1455 56.2174C70.2069 56.3941 70.2646 56.9357 70.3183 57.8423C70.3721 58.7488 70.3836 59.3903 70.3529 59.7668C70.3068 60.1816 70.2492 60.4236 70.18 60.4928C70.1109 60.5619 69.9227 60.5581 69.6154 60.4813C69.5616 60.4659 69.5193 60.4467 69.4886 60.4236C69.4656 60.4006 69.4425 60.343 69.4195 60.2508C69.3964 60.1586 69.381 60.0472 69.3734 59.9166C69.3734 59.7783 69.3734 59.5593 69.3734 59.2597C69.3657 58.9985 69.358 58.7987 69.3503 58.6605C69.3426 58.5222 69.3311 58.4108 69.3157 58.3263C69.3004 58.2341 69.2812 58.1765 69.2581 58.1534C69.2428 58.1227 69.2197 58.1112 69.189 58.1188C69.189 58.1188 68.8548 58.1726 68.1864 58.2802C67.7331 58.357 67.422 58.38 67.2529 58.3493C67.0839 58.3186 66.9994 58.2149 66.9994 58.0382C66.9994 57.9613 67.0301 57.896 67.0916 57.8423C67.1531 57.7808 67.2337 57.7347 67.3336 57.704C67.4412 57.6656 67.5679 57.6463 67.7139 57.6463C67.9367 57.6463 68.1633 57.6156 68.3938 57.5542C68.655 57.485 68.8663 57.4351 69.0276 57.4043C69.1659 57.3659 69.2466 57.3237 69.2696 57.2776C69.2927 57.2238 69.2812 57.0663 69.2351 56.8051C69.2043 56.4286 69.2043 56.2097 69.2351 56.1482ZM65.6396 56.782C65.7856 56.4363 66.0352 56.3595 66.3886 56.5516C66.4732 56.59 66.5154 56.6514 66.5154 56.736C66.5231 56.8128 66.4847 57.0356 66.4002 57.4043C66.3157 57.7654 66.2734 57.9844 66.2734 58.0612C66.2734 58.1304 66.3118 58.1841 66.3886 58.2225C66.4962 58.261 66.7881 58.4761 67.2645 58.8679C68.1019 59.544 68.3516 59.9281 68.0135 60.0203C67.9521 60.0433 67.8714 60.0549 67.7715 60.0549C67.5487 60.0549 67.2337 59.882 66.8266 59.5363C66.3886 59.1982 66.1351 59.0446 66.066 59.0753C65.9815 59.1137 65.8739 59.4518 65.7433 60.0894L65.5589 61.0575L65.2132 61.0229C65.0442 61.0075 64.9405 60.9806 64.902 60.9422C64.8636 60.8961 64.8329 60.7732 64.8099 60.5734C64.7868 60.2661 64.8713 59.6707 65.0634 58.7872C65.2631 57.9037 65.4552 57.2353 65.6396 56.782ZM67.2414 61.576C67.6179 61.4992 68.0289 61.4608 68.4745 61.4608C68.6051 61.4608 68.7088 61.4608 68.7856 61.4608C68.8701 61.4608 68.9547 61.4646 69.0392 61.4723C69.1314 61.48 69.1967 61.4954 69.2351 61.5184C69.2812 61.5415 69.3273 61.5684 69.3734 61.5991C69.4195 61.6298 69.4502 61.6798 69.4656 61.7489C69.4886 61.8104 69.5117 61.8718 69.5347 61.9333C69.5577 61.9947 69.5693 62.0831 69.5693 62.1983C69.577 62.3136 69.5808 62.4288 69.5808 62.5441C69.5885 62.6516 69.5923 62.7976 69.5923 62.982C69.5923 63.7272 69.5731 64.1613 69.5347 64.2842C69.4963 64.3687 69.3349 64.4186 69.0507 64.434C68.7664 64.457 68.5974 64.4301 68.5436 64.3533C68.5129 64.3149 68.5321 64.1574 68.6013 63.8808C68.6397 63.6196 68.6819 63.2701 68.728 62.8322C68.7357 62.6708 68.7434 62.5556 68.7511 62.4864C68.7587 62.4096 68.7472 62.3366 68.7165 62.2675C68.6934 62.1983 68.6704 62.1561 68.6474 62.1407C68.6243 62.1253 68.559 62.1177 68.4514 62.1177C68.3516 62.11 68.2555 62.1177 68.1633 62.1407C68.0712 62.1561 67.9213 62.183 67.7139 62.2214C67.2837 62.3059 67.0033 62.3328 66.8727 62.302C66.742 62.2636 66.6921 62.1522 66.7228 61.9679C66.7305 61.8449 66.7613 61.7643 66.815 61.7258C66.8765 61.6798 67.0186 61.6298 67.2414 61.576Z" fill="#484B60"></path>
<path d="M69.4263 72.1237C69.4648 72.0162 69.6184 71.9624 69.8873 71.9624H70.2791L70.3483 74.0252C70.3559 74.2326 70.3636 74.4554 70.3713 74.6936C70.379 74.9318 70.3867 75.1353 70.3944 75.3044C70.402 75.4734 70.4059 75.6347 70.4059 75.7884C70.4136 75.9343 70.4174 76.0534 70.4174 76.1456C70.4251 76.2301 70.4289 76.2877 70.4289 76.3185C70.4289 76.5566 70.4251 76.741 70.4174 76.8716C70.4097 77.0637 70.3867 77.1789 70.3483 77.2174C70.3099 77.2481 70.1985 77.2634 70.0141 77.2634C69.7452 77.2634 69.5954 77.2135 69.5646 77.1136C69.5185 77.0061 69.4724 76.1725 69.4263 74.6129C69.3879 73.0533 69.3879 72.2236 69.4263 72.1237ZM65.4736 73.4375C65.8347 73.1686 66.1343 73.0572 66.3725 73.1033C66.6106 73.1417 66.9602 73.3683 67.4212 73.7832C67.5364 73.8908 67.6094 73.9906 67.6401 74.0828C67.6785 74.175 67.6977 74.3171 67.6977 74.5092C67.6977 74.7397 67.644 74.9932 67.5364 75.2698C67.4288 75.5387 67.3059 75.7308 67.1676 75.846C67.0678 75.9305 66.8258 76.0073 66.4416 76.0765C66.0652 76.1379 65.8078 76.1533 65.6695 76.1226C65.4544 76.0611 65.2585 75.942 65.0818 75.7653C64.9051 75.5886 64.8014 75.3927 64.7706 75.1776C64.7169 74.8472 64.7514 74.5284 64.8744 74.2211C64.9973 73.9138 65.197 73.6526 65.4736 73.4375ZM66.5108 74.2672C66.3341 74.1443 66.2188 74.0867 66.165 74.0943C66.119 74.0943 66.0344 74.1712 65.9115 74.3248C65.7656 74.5092 65.6964 74.6974 65.7041 74.8895C65.7195 75.0739 65.804 75.2199 65.9576 75.3274C66.0959 75.4119 66.1881 75.4503 66.2342 75.4427C66.2803 75.4273 66.3725 75.3389 66.5108 75.1776C66.6952 74.9702 66.7873 74.8011 66.7873 74.6705C66.7873 74.5323 66.6952 74.3978 66.5108 74.2672Z" fill="#484B60"></path>
<path d="M26.2823 41.6363C26.3899 41.5211 26.4821 41.4596 26.5589 41.4519C26.6357 41.4366 26.7471 41.4635 26.8931 41.5326C26.9776 41.5864 27.0237 41.6555 27.0314 41.74C27.0468 41.8246 27.0429 42.0205 27.0199 42.3278C26.9891 42.6504 26.9815 42.8463 26.9968 42.9155C27.0122 42.9846 27.0775 43.0307 27.1927 43.0538C27.3387 43.1076 27.6345 43.1344 28.0801 43.1344C28.3567 43.1344 28.541 43.146 28.6332 43.169C28.7331 43.1844 28.7907 43.2266 28.8061 43.2958C28.8599 43.4264 28.8291 43.5186 28.7139 43.5724C28.6063 43.6185 28.3259 43.6607 27.8726 43.6991L27.0314 43.7798L27.0199 44.7017C27.0199 45.324 26.993 45.6544 26.9392 45.6928C26.9162 45.7158 26.7817 45.7312 26.5359 45.7389C26.2977 45.7466 26.1594 45.7389 26.121 45.7158C26.1056 45.6928 26.0903 45.2894 26.0749 44.5058C26.0595 43.7222 26.0557 43.0884 26.0634 42.6043C26.0711 42.2894 26.0903 42.0704 26.121 41.9475C26.1517 41.8169 26.2055 41.7132 26.2823 41.6363ZM22.9288 42.6389C23.1516 42.5237 23.3283 42.4776 23.459 42.5006C23.5896 42.516 23.8392 42.612 24.208 42.7887C24.4923 42.9347 24.6767 43.0768 24.7612 43.2151C24.8457 43.3534 24.8879 43.5877 24.8879 43.9181C24.8879 44.1332 24.8687 44.2869 24.8303 44.379C24.7919 44.4712 24.692 44.5826 24.5307 44.7132C24.3309 44.8976 24.0889 45.0359 23.8047 45.1281C23.5204 45.2126 23.263 45.2318 23.0326 45.1857C22.8559 45.155 22.6676 45.0551 22.4679 44.8861C22.2758 44.7171 22.1452 44.5404 22.0761 44.356C21.9762 44.0871 22.0146 43.776 22.1913 43.4225C22.368 43.0615 22.6139 42.8003 22.9288 42.6389ZM23.7816 43.5493C23.651 43.411 23.5511 43.3457 23.482 43.3534C23.4129 43.3534 23.3168 43.4341 23.1939 43.5954C23.071 43.7567 23.0057 43.8797 22.998 43.9642C22.9903 44.0487 23.0402 44.1639 23.1478 44.3099C23.24 44.4559 23.313 44.5289 23.3668 44.5289C23.4282 44.5212 23.5435 44.4405 23.7125 44.2869C23.8738 44.1255 23.9583 43.9988 23.966 43.9066C23.9737 43.8144 23.9122 43.6953 23.7816 43.5493ZM24.4731 46.3381C25.3028 46.2843 25.9942 46.2498 26.5474 46.2344C27.0237 46.2267 27.3157 46.2344 27.4232 46.2575C27.5308 46.2805 27.5999 46.342 27.6306 46.4418C27.6767 46.5724 27.6652 46.6685 27.5961 46.7299C27.5346 46.7837 27.404 46.826 27.2043 46.8567L26.8585 46.8798V47.6173L26.824 48.3663H27.3771C27.646 48.374 27.8035 48.3894 27.8496 48.4124C27.9034 48.4355 27.9303 48.5085 27.9303 48.6314C27.9303 48.739 27.8919 48.8119 27.815 48.8504C27.7459 48.8888 27.55 48.9387 27.2273 49.0002C26.7049 49.1 26.121 49.2268 25.4757 49.3805C24.7688 49.5495 24.281 49.6225 24.0121 49.5994C23.8431 49.5841 23.7355 49.561 23.6894 49.5303C23.651 49.4995 23.6318 49.4304 23.6318 49.3228C23.6318 49.2537 23.6433 49.1999 23.6664 49.1615C23.6894 49.1231 23.724 49.0924 23.7701 49.0693C23.8239 49.0463 23.9045 49.0271 24.0121 49.0117C24.2579 48.981 24.4001 48.9425 24.4385 48.8965C24.4846 48.858 24.4654 48.5392 24.3809 47.94L24.2426 47.0411L23.8853 47.1102C23.5319 47.1717 23.3015 47.1909 23.1939 47.1679C23.0863 47.1371 23.0249 47.0488 23.0095 46.9028C22.9942 46.7722 23.021 46.6762 23.0902 46.6147C23.1593 46.5532 23.2976 46.5033 23.505 46.4649C23.7125 46.4188 24.0352 46.3765 24.4731 46.3381ZM25.8559 47.698C25.8713 47.1294 25.8559 46.8452 25.8098 46.8452C25.7945 46.8452 25.7638 46.849 25.7177 46.8567C25.4872 46.8874 25.3527 46.9374 25.3143 47.0065C25.2836 47.0757 25.2759 47.2869 25.2913 47.6403C25.2913 47.7018 25.2913 47.7517 25.2913 47.7901C25.3143 48.205 25.3374 48.447 25.3604 48.5162C25.3835 48.593 25.4564 48.6237 25.5794 48.6084C25.6946 48.5853 25.7638 48.5315 25.7868 48.447C25.8175 48.3702 25.8406 48.1205 25.8559 47.698Z" fill="#484B60"></path>
<path d="M50.968 42.6042C51.8439 42.489 52.324 42.4467 52.4085 42.4775C52.4393 42.4852 52.4854 42.5236 52.5468 42.5927C52.6313 42.6695 52.6698 42.7733 52.6621 42.9039C52.6544 43.0345 52.6006 43.2688 52.5007 43.6068C52.4239 43.8296 52.4162 43.9641 52.4777 44.0102C52.5315 44.0639 52.785 44.1331 53.2383 44.2176C53.6685 44.2944 53.972 44.3751 54.1487 44.4596C54.3254 44.5364 54.4137 44.6325 54.4137 44.7477C54.4137 44.8553 54.3139 44.9129 54.1141 44.9206C53.922 44.9283 53.5417 44.8898 52.9732 44.8053C52.7812 44.7823 52.6467 44.7669 52.5699 44.7592C52.4931 44.7439 52.4047 44.7439 52.3048 44.7592C52.205 44.7746 52.1397 44.7976 52.1089 44.8284C52.0782 44.8514 52.0321 44.9129 51.9706 45.0128C51.9169 45.105 51.8746 45.201 51.8439 45.3009C51.8131 45.3931 51.767 45.5429 51.7056 45.7503C51.6057 46.073 51.5058 46.2919 51.406 46.4072C51.3061 46.5224 51.1755 46.5762 51.0141 46.5685C50.9988 46.5608 50.9527 46.557 50.8759 46.557C50.8067 46.5493 50.7645 46.5416 50.7491 46.5339C50.7107 46.5339 50.6799 46.5147 50.6569 46.4763C50.6339 46.4379 50.6223 46.3956 50.6223 46.3495C50.6223 46.2881 50.6531 46.1421 50.7145 45.9116C50.7837 45.6812 50.872 45.4199 50.9796 45.128C51.0871 44.8361 51.1908 44.571 51.2907 44.3328C51.429 43.9948 51.5135 43.7336 51.5442 43.5492L51.6134 43.2265L51.0257 43.2957C50.6185 43.3495 50.2497 43.3764 49.9194 43.3764C49.6812 43.3764 49.5275 43.3648 49.4584 43.3418C49.3969 43.3187 49.3662 43.265 49.3662 43.1804C49.3662 43.0345 49.4738 42.9231 49.6889 42.8462C49.9117 42.7694 50.3381 42.6888 50.968 42.6042ZM55.1513 43.192C55.1897 43.1305 55.2358 43.0921 55.2896 43.0767C55.351 43.0537 55.4509 43.046 55.5892 43.0537L55.9579 43.0767V44.0678C55.9579 44.7055 55.981 45.0396 56.0271 45.0704C56.0578 45.1088 56.2883 45.0973 56.7185 45.0358C57.0719 44.982 57.3216 44.982 57.4676 45.0358C57.6212 45.0819 57.6981 45.1856 57.6981 45.347C57.6981 45.4622 57.6481 45.539 57.5483 45.5774C57.4561 45.6158 57.1756 45.6619 56.707 45.7157L55.9579 45.7733V46.7759V47.7785L55.5661 47.8131C55.3126 47.8285 55.1551 47.7977 55.0936 47.7209C55.0475 47.6364 55.0322 46.895 55.0475 45.4968C55.0706 44.0908 55.1052 43.3226 55.1513 43.192ZM52.374 45.2893C52.4662 45.1971 52.5929 45.1472 52.7543 45.1395C52.9156 45.1242 53.0232 45.1587 53.0769 45.2432C53.1154 45.3201 53.1384 45.5966 53.1461 46.073C53.1461 46.557 53.173 46.8259 53.2268 46.8796C53.2728 46.9181 53.4073 46.9104 53.6301 46.8566C53.8298 46.7875 54.0565 46.7375 54.31 46.7068C54.4637 46.6914 54.5597 46.6991 54.5981 46.7298C54.6365 46.7529 54.6557 46.8182 54.6557 46.9257C54.6557 47.064 54.5251 47.1946 54.2639 47.3176C54.0104 47.4328 53.511 47.5903 52.7658 47.79C52.205 47.9283 51.8439 48.0013 51.6825 48.009C51.5212 48.0167 51.4213 47.9552 51.3829 47.8246C51.3522 47.7171 51.3714 47.6326 51.4405 47.5711C51.5097 47.5019 51.6633 47.4213 51.9015 47.3291L52.2126 47.2138V46.3265C52.2126 45.7426 52.2664 45.3969 52.374 45.2893Z" fill="#484B60"></path>
<path d="M69.2351 41.5325C69.2965 41.4403 69.4502 41.4057 69.696 41.4288C69.9496 41.4518 70.0994 41.5095 70.1455 41.6016C70.2069 41.7784 70.2646 42.32 70.3183 43.2265C70.3721 44.1331 70.3836 44.7746 70.3529 45.151C70.3068 45.5659 70.2492 45.8079 70.18 45.8771C70.1109 45.9462 69.9227 45.9424 69.6154 45.8655C69.5616 45.8502 69.5193 45.831 69.4886 45.8079C69.4656 45.7849 69.4425 45.7272 69.4195 45.6351C69.3964 45.5429 69.381 45.4315 69.3734 45.3009C69.3734 45.1626 69.3734 44.9436 69.3734 44.644C69.3657 44.3828 69.358 44.183 69.3503 44.0447C69.3426 43.9065 69.3311 43.7951 69.3157 43.7105C69.3004 43.6184 69.2812 43.5607 69.2581 43.5377C69.2428 43.507 69.2197 43.4954 69.189 43.5031C69.189 43.5031 68.8548 43.5569 68.1864 43.6644C67.7331 43.7413 67.422 43.7643 67.2529 43.7336C67.0839 43.7029 66.9994 43.5991 66.9994 43.4224C66.9994 43.3456 67.0301 43.2803 67.0916 43.2265C67.1531 43.1651 67.2337 43.119 67.3336 43.0882C67.4412 43.0498 67.5679 43.0306 67.7139 43.0306C67.9367 43.0306 68.1633 42.9999 68.3938 42.9384C68.655 42.8693 68.8663 42.8194 69.0276 42.7886C69.1659 42.7502 69.2466 42.708 69.2696 42.6619C69.2927 42.6081 69.2812 42.4506 69.2351 42.1894C69.2043 41.8129 69.2043 41.594 69.2351 41.5325ZM65.6396 42.1663C65.7856 41.8206 66.0352 41.7438 66.3886 41.9358C66.4732 41.9743 66.5154 42.0357 66.5154 42.1202C66.5231 42.1971 66.4847 42.4199 66.4002 42.7886C66.3157 43.1497 66.2734 43.3687 66.2734 43.4455C66.2734 43.5146 66.3118 43.5684 66.3886 43.6068C66.4962 43.6452 66.7881 43.8604 67.2645 44.2522C68.1019 44.9282 68.3516 45.3124 68.0135 45.4046C67.9521 45.4276 67.8714 45.4391 67.7715 45.4391C67.5487 45.4391 67.2337 45.2663 66.8266 44.9206C66.3886 44.5825 66.1351 44.4289 66.066 44.4596C65.9815 44.498 65.8739 44.8361 65.7433 45.4737L65.5589 46.4417L65.2132 46.4072C65.0442 46.3918 64.9405 46.3649 64.902 46.3265C64.8636 46.2804 64.8329 46.1575 64.8099 45.9577C64.7868 45.6504 64.8713 45.055 65.0634 44.1715C65.2631 43.288 65.4552 42.6196 65.6396 42.1663ZM67.2414 46.9603C67.6179 46.8835 68.0289 46.8451 68.4745 46.8451C68.6051 46.8451 68.7088 46.8451 68.7856 46.8451C68.8701 46.8451 68.9547 46.8489 69.0392 46.8566C69.1314 46.8643 69.1967 46.8796 69.2351 46.9027C69.2812 46.9257 69.3273 46.9526 69.3734 46.9834C69.4195 47.0141 69.4502 47.064 69.4656 47.1332C69.4886 47.1946 69.5117 47.2561 69.5347 47.3176C69.5577 47.379 69.5693 47.4674 69.5693 47.5826C69.577 47.6978 69.5808 47.8131 69.5808 47.9283C69.5885 48.0359 69.5923 48.1819 69.5923 48.3662C69.5923 49.1115 69.5731 49.5455 69.5347 49.6685C69.4963 49.753 69.3349 49.8029 69.0507 49.8183C68.7664 49.8413 68.5974 49.8144 68.5436 49.7376C68.5129 49.6992 68.5321 49.5417 68.6013 49.2651C68.6397 49.0039 68.6819 48.6543 68.728 48.2164C68.7357 48.0551 68.7434 47.9399 68.7511 47.8707C68.7587 47.7939 68.7472 47.7209 68.7165 47.6518C68.6934 47.5826 68.6704 47.5404 68.6474 47.525C68.6243 47.5096 68.559 47.5019 68.4514 47.5019C68.3516 47.4943 68.2555 47.5019 68.1633 47.525C68.0712 47.5404 67.9213 47.5672 67.7139 47.6057C67.2837 47.6902 67.0033 47.7171 66.8727 47.6863C66.742 47.6479 66.6921 47.5365 66.7228 47.3521C66.7305 47.2292 66.7613 47.1485 66.815 47.1101C66.8765 47.064 67.0186 47.0141 67.2414 46.9603Z" fill="#484B60"></path>
<path d="M79.7016 41.4174C79.7938 41.3559 79.9436 41.3367 80.1511 41.3598L80.4392 41.3828L80.4277 42.1434L80.4046 42.927H80.9808C81.3803 42.927 81.6838 42.9078 81.8912 42.8694L82.2139 42.8003L82.1563 42.2241C82.1332 41.9629 82.1294 41.7938 82.1447 41.717C82.1601 41.6402 82.21 41.5787 82.2945 41.5326C82.4098 41.4712 82.5404 41.4558 82.6864 41.4865C82.84 41.5173 82.9476 41.5787 83.009 41.6709C83.0628 41.7477 83.0897 42.2279 83.0897 43.1114C83.0897 44.0026 83.0321 44.5634 82.9168 44.7939C82.7555 45.1473 82.4751 45.3893 82.0756 45.5199C81.6838 45.6429 81.2497 45.6313 80.7734 45.4854C80.2817 45.3471 79.9552 45.0974 79.7938 44.7363C79.6402 44.3752 79.5634 43.7145 79.5634 42.7542C79.5557 42.4161 79.5557 42.1588 79.5634 41.9821C79.571 41.8054 79.5826 41.6786 79.5979 41.6018C79.621 41.5173 79.6555 41.4558 79.7016 41.4174ZM81.4879 43.5724C81.3265 43.557 81.1959 43.5493 81.096 43.5493C81.0039 43.5493 80.9117 43.557 80.8195 43.5724C80.735 43.5801 80.6773 43.5916 80.6466 43.607C80.6159 43.6223 80.5852 43.6454 80.5544 43.6761C80.5237 43.6991 80.5083 43.7337 80.5083 43.7798C80.516 43.8182 80.5198 43.8643 80.5198 43.9181C80.6274 44.4405 80.8003 44.744 81.0384 44.8285C81.7145 45.0897 82.0756 44.8362 82.1217 44.0679L82.1447 43.5839L81.4879 43.5724ZM82.8938 46.2805C83.4854 46.196 83.8503 46.1538 83.9886 46.1538C84.1269 46.1538 84.2191 46.1999 84.2652 46.292C84.3266 46.4457 84.2959 46.5686 84.173 46.6608C84.05 46.7453 83.8196 46.8183 83.4815 46.8798L82.8477 46.9835V47.3753C82.8631 47.7671 82.8938 48.109 82.9399 48.4009L83.0206 49.0002L82.5826 48.9541C82.283 48.9157 82.1217 48.8849 82.0986 48.8619C82.0756 48.8542 82.0333 48.5508 81.9719 47.9515C81.9181 47.3753 81.8797 47.0834 81.8566 47.0757C81.8489 47.0603 81.4495 47.0834 80.6581 47.1448C79.8438 47.2063 79.3674 47.214 79.2292 47.1679C79.0986 47.1448 79.0217 47.0757 78.9987 46.9604C78.9833 46.8375 79.0256 46.7338 79.1254 46.6493C79.1869 46.5801 79.694 46.5225 80.6466 46.4764C81.7145 46.3996 82.4636 46.3343 82.8938 46.2805Z" fill="#484B60"></path>
<path d="M83.6393 57.6351C83.7929 57.5198 83.9927 57.5122 84.2385 57.612C84.2692 57.6274 84.2961 57.6543 84.3192 57.6927C84.3422 57.7234 84.3576 57.7811 84.3653 57.8656C84.3806 57.9501 84.3883 58.0576 84.3883 58.1882C84.396 58.3112 84.3998 58.484 84.3998 58.7068V59.744H85.3563H86.3013L86.2667 60.009C86.259 60.155 86.213 60.2434 86.1284 60.2741C86.0516 60.2971 85.7904 60.3202 85.3448 60.3432L84.4344 60.3893V61.0462C84.4344 61.0923 84.4344 61.1576 84.4344 61.2421C84.4267 61.7031 84.4037 61.972 84.3653 62.0488C84.3345 62.1256 84.2231 62.1525 84.0311 62.1294C84.008 62.1218 83.9927 62.1179 83.985 62.1179L83.5471 62.0949L83.4779 61.0001C83.4395 60.3163 83.4357 59.5942 83.4664 58.8336C83.5048 58.073 83.5624 57.6735 83.6393 57.6351ZM77.6352 58.4187C78.0501 58.388 78.538 58.388 79.0988 58.4187C79.7211 58.4341 80.1052 58.4418 80.2512 58.4418C80.3972 58.4341 80.716 58.4149 81.2077 58.3841C81.7071 58.3534 82.0144 58.3765 82.1296 58.4533C82.2525 58.5224 82.3178 58.726 82.3255 59.0641C82.3409 59.5327 82.314 60.1166 82.2449 60.8157C82.1834 61.5072 82.1258 61.8567 82.072 61.8644C81.6341 61.9182 81.3806 61.8798 81.3114 61.7492C81.2653 61.6493 81.2653 61.3112 81.3114 60.735C81.3191 60.7043 81.3229 60.6544 81.3229 60.5852C81.3998 59.7248 81.4113 59.2331 81.3575 59.1102C81.3037 58.9796 81.0809 58.9527 80.6891 59.0295C80.6584 59.0372 80.6353 59.0449 80.62 59.0525L80.1475 59.1563L79.8363 60.47L79.5598 61.7837L79.1564 61.8298C78.9106 61.8452 78.7569 61.8221 78.6955 61.7607C78.6417 61.6915 78.6378 61.5532 78.6839 61.3458C79.0604 59.817 79.2294 59.0372 79.191 59.0064C79.1449 58.9603 78.9144 58.9757 78.4995 59.0525C77.9771 59.1294 77.6122 59.1601 77.4048 59.1447C77.1973 59.1294 77.0667 59.0525 77.013 58.9142C76.9515 58.7606 76.9669 58.6454 77.059 58.5685C77.1589 58.4917 77.351 58.4418 77.6352 58.4187Z" fill="#484B60"></path>
<path d="M80.8392 70.2457C81.1158 70.1996 81.3885 70.2111 81.6574 70.2802C81.934 70.3494 82.1645 70.4646 82.3489 70.626C82.4872 70.7335 82.5717 70.8334 82.6024 70.9256C82.6408 71.0178 82.66 71.1676 82.66 71.375C82.66 71.6055 82.6408 71.7707 82.6024 71.8706C82.564 71.9628 82.4603 72.0934 82.2912 72.2624C82.0377 72.5159 81.7765 72.6619 81.5076 72.7003C81.1004 72.7771 80.7086 72.7233 80.3322 72.539C79.9557 72.3469 79.7675 72.1126 79.7675 71.836C79.7675 71.4672 79.875 71.1177 80.0902 70.7873C80.313 70.4569 80.5626 70.2764 80.8392 70.2457ZM81.5998 71.1215C81.4999 71.0139 81.3847 70.9678 81.2541 70.9832C81.1235 70.9909 81.0121 71.06 80.9199 71.1906C80.82 71.3443 80.7701 71.498 80.7701 71.6516C80.7778 71.7976 80.8392 71.9013 80.9545 71.9628C81.1235 72.0549 81.2848 72.0549 81.4385 71.9628C81.5998 71.8629 81.6958 71.7361 81.7266 71.5825C81.7573 71.4211 81.715 71.2675 81.5998 71.1215ZM82.1645 72.9653C82.2797 72.8885 82.4219 72.8578 82.5909 72.8731C82.7676 72.8808 82.8713 72.9269 82.902 73.0114C82.9251 73.0729 82.902 73.2919 82.8329 73.6683C82.7714 74.0371 82.6984 74.3751 82.6139 74.6824C82.5832 74.7592 82.587 74.8092 82.6254 74.8322C82.6639 74.8476 82.7599 74.8553 82.9135 74.8553C83.144 74.8553 83.3246 74.8937 83.4552 74.9705C83.5935 75.0397 83.6626 75.1357 83.6626 75.2586C83.6626 75.3585 83.6357 75.4315 83.5819 75.4776C83.5358 75.5237 83.3937 75.5659 83.1555 75.6043C82.9174 75.6351 82.6178 75.6581 82.2567 75.6735C81.8956 75.6812 81.3309 75.6888 80.5626 75.6965C80.094 75.6965 79.8174 75.6888 79.7329 75.6735C79.6561 75.6581 79.6177 75.589 79.6177 75.4661C79.6177 75.3662 79.6407 75.297 79.6868 75.2586C79.7329 75.2125 79.8213 75.1741 79.9519 75.1434C80.0671 75.105 80.1439 75.0704 80.1824 75.0397C80.2284 75.0012 80.2438 74.9513 80.2284 74.8899C80.1516 74.6978 80.0902 74.4635 80.0441 74.1869C79.998 73.9026 79.9826 73.7067 79.998 73.5992C80.0441 73.4686 80.1516 73.3764 80.3206 73.3226C80.4973 73.2611 80.6356 73.2842 80.7355 73.3917C80.82 73.4686 80.9045 73.7682 80.989 74.2906C81.0428 74.6901 81.1043 74.9283 81.1734 75.0051C81.2426 75.0742 81.377 75.0589 81.5768 74.959C81.6997 74.8899 81.765 74.7439 81.7727 74.5211C81.7727 74.2522 81.8188 73.9372 81.911 73.5761C82.0031 73.215 82.0877 73.0114 82.1645 72.9653ZM80.8853 76.6645C81.4538 76.4033 81.9801 76.4033 82.4641 76.6645C82.7023 76.7798 82.8636 76.9142 82.9481 77.0679C83.0403 77.2139 83.0672 77.3982 83.0288 77.621C82.952 78.105 82.6715 78.4546 82.1875 78.6697C81.6728 78.8925 81.2234 78.9156 80.8392 78.7389C80.4628 78.5698 80.2745 78.2587 80.2745 77.8054C80.2745 77.4751 80.3168 77.2292 80.4013 77.0679C80.4858 76.9066 80.6472 76.7721 80.8853 76.6645ZM81.911 77.3099C81.7035 77.2407 81.5422 77.2407 81.4269 77.3099C81.3194 77.379 81.2656 77.5135 81.2656 77.7132C81.2656 77.9207 81.3002 78.0436 81.3693 78.082C81.4462 78.1281 81.5768 78.1012 81.7611 78.0013C81.9225 77.9168 82.0185 77.7939 82.0492 77.6326C82.0877 77.4789 82.0416 77.3714 81.911 77.3099Z" fill="#484B60"></path>
<path d="M97.7065 42.9037C97.7987 42.8038 97.9216 42.75 98.0753 42.7423C98.2289 42.727 98.3403 42.7615 98.4095 42.846C98.4556 42.9152 98.5209 43.5413 98.6054 44.7244C98.6976 45.9076 98.7437 46.7642 98.7437 47.2943V47.8359L98.3173 47.8129L97.8909 47.7783L97.8217 46.7296C97.8141 46.6835 97.8102 46.6221 97.8102 46.5452C97.7718 45.8845 97.7257 45.5042 97.6719 45.4044C97.6181 45.3045 97.4607 45.293 97.1994 45.3698C97.161 45.3775 97.1341 45.3813 97.1188 45.3813C96.7346 45.4735 96.4657 45.5196 96.3121 45.5196C96.1892 45.5196 96.1123 45.5081 96.0816 45.485C96.0509 45.462 96.0432 45.389 96.0586 45.2661C96.0663 45.2123 96.0778 45.1739 96.0931 45.1508C96.1085 45.1201 96.1277 45.0894 96.1508 45.0586C96.1738 45.0279 96.2122 45.001 96.266 44.978C96.3198 44.9472 96.3812 44.9204 96.4504 44.8973C96.5195 44.8743 96.6156 44.8435 96.7385 44.8051C97.1994 44.6668 97.4683 44.5516 97.5452 44.4594C97.622 44.3595 97.6412 44.1175 97.6028 43.7334C97.5721 43.2955 97.6066 43.0189 97.7065 42.9037ZM95.7244 42.8806C95.7628 42.8422 95.805 42.846 95.8511 42.8921C95.9049 42.9305 95.951 42.9958 95.9894 43.088C96.0278 43.1802 96.047 43.2647 96.047 43.3416C96.047 43.5183 95.9894 43.6412 95.8742 43.7103C95.7666 43.7795 95.636 43.7795 95.4824 43.7103C95.3364 43.6412 94.9638 43.645 94.3645 43.7219C93.2736 43.8678 92.7089 43.864 92.6705 43.7103C92.6628 43.7026 92.6628 43.6834 92.6705 43.6527C92.6859 43.5221 92.8203 43.4145 93.0738 43.33C93.3351 43.2378 93.7922 43.1495 94.4452 43.065C95.2826 42.9574 95.709 42.896 95.7244 42.8806ZM94.8485 44.5516C95.0176 44.4748 95.1904 44.4363 95.3671 44.4363C95.49 44.4363 95.5669 44.4556 95.5976 44.494C95.6283 44.5247 95.6437 44.5977 95.6437 44.7129C95.6437 44.8205 95.6322 44.8973 95.6091 44.9434C95.5861 44.9818 95.5361 45.0202 95.4593 45.0586C95.3902 45.0894 95.2634 45.1278 95.079 45.1739C94.9945 45.2046 94.8908 45.2392 94.7679 45.2776C94.6526 45.3083 94.5566 45.3314 94.4798 45.3467C94.403 45.3621 94.3492 45.3736 94.3184 45.3813C94.2032 45.4274 94.1264 45.5311 94.088 45.6925C94.0649 45.8 94.0572 45.9229 94.0649 46.0612C94.0726 46.1995 94.0956 46.3301 94.1341 46.453C94.1725 46.576 94.2147 46.649 94.2608 46.672C94.3223 46.7258 94.6872 46.6797 95.3556 46.5337C95.6399 46.4646 95.8627 46.4185 96.024 46.3954C96.1853 46.3647 96.3121 46.357 96.4043 46.3724C96.5042 46.3801 96.5656 46.4069 96.5887 46.453C96.6194 46.4991 96.6309 46.5644 96.6232 46.649C96.5771 46.9102 95.9817 47.1061 94.837 47.2367C94.1763 47.3135 93.7422 47.2828 93.5348 47.1445C93.3351 47.0062 93.2313 46.6797 93.2237 46.1649C93.2083 45.9191 93.1852 45.7654 93.1545 45.704C93.1315 45.6425 93.0546 45.6003 92.924 45.5772C92.7397 45.5388 92.6475 45.4581 92.6475 45.3352C92.6475 45.2277 92.7128 45.1508 92.8434 45.1047C92.974 45.051 93.3543 44.9472 93.9842 44.7936C94.2839 44.7244 94.572 44.6438 94.8485 44.5516Z" fill="#484B60"></path>
<path d="M97.7825 60.7347C97.7057 59.9511 97.6673 59.2481 97.6673 58.6258C97.675 57.9958 97.7172 57.6424 97.7941 57.5656C97.8709 57.4888 98.0015 57.4504 98.1859 57.4504C98.3703 57.4427 98.4817 57.4734 98.5201 57.5426C98.5662 57.6117 98.6199 58.3224 98.6814 59.6745C98.7352 60.9806 98.7813 61.7757 98.8197 62.06C98.8351 62.2981 98.812 62.4595 98.7506 62.544C98.6891 62.6208 98.5585 62.6439 98.3587 62.6131C98.159 62.5978 98.0322 62.5056 97.9784 62.3366C97.9323 62.1675 97.867 61.6336 97.7825 60.7347ZM93.8298 57.992C94.4982 57.8537 94.9707 57.7807 95.2473 57.773C95.5238 57.7577 95.7159 57.7999 95.8235 57.8998C95.908 57.9843 95.9425 58.0996 95.9272 58.2455C95.9195 58.3915 95.8465 58.7679 95.7082 59.3749L95.5469 60.0663L96.3651 60.8154C97.0181 61.4223 97.2678 61.7796 97.1141 61.8871C97.068 61.9255 96.9759 61.9447 96.8376 61.9447C96.6071 61.9447 96.3267 61.8103 95.9963 61.5414C95.6813 61.3032 95.4931 61.1381 95.4316 61.0459C95.3548 60.9153 95.2741 60.9421 95.1896 61.1265C95.1512 61.2187 95.0974 61.3609 95.0283 61.5529C94.8977 61.9908 94.8055 62.2444 94.7517 62.3135C94.6903 62.3903 94.5481 62.4326 94.3253 62.4403C94.1102 62.4479 93.9758 62.4134 93.922 62.3366C93.8759 62.2751 94.0219 61.7527 94.3599 60.7693C94.8439 59.3403 95.0245 58.572 94.9015 58.4645C94.8862 58.4568 94.867 58.453 94.8439 58.453C94.7364 58.453 94.6672 58.4837 94.6365 58.5452C94.6057 58.5912 94.3445 58.6566 93.8528 58.7411C93.3612 58.8179 93.0346 58.8486 92.8733 58.8333C92.7427 58.8179 92.6505 58.7526 92.5967 58.6373C92.5506 58.5144 92.566 58.4145 92.6428 58.3377C92.7043 58.2839 93.0999 58.1687 93.8298 57.992Z" fill="#484B60"></path>
</g>
<defs>
<clipPath id="clip0_7_136">
<rect width="72.0953" height="43.0042" fill="white" transform="translate(24.4438 37.2329)"></rect>
</clipPath>
</defs>
</svg>