<svg width="22" height="22" viewBox="0 0 22 22" fill="none" xmlns="http://www.w3.org/2000/svg">
<path d="M15.9902 3.98926C16.5262 3.98926 17.0408 4.20216 17.4199 4.58105C17.799 4.96011 18.0126 5.47468 18.0127 6.01074V13.1406C18.0126 13.6767 17.799 14.1912 17.4199 14.5703C17.0408 14.9493 16.5263 15.1621 15.9902 15.1621H7.68164L5.31738 17.5264C4.82669 18.0169 3.98788 17.6702 3.9873 16.9766V6.01074C3.98741 5.47469 4.20102 4.96011 4.58008 4.58105C4.95919 4.20216 5.47375 3.98926 6.00977 3.98926H15.9902ZM7.79199 8.70996C7.28573 8.70996 6.875 9.12069 6.875 9.62695C6.87509 10.1331 7.28579 10.543 7.79199 10.543C8.29805 10.5428 8.70792 10.133 8.70801 9.62695C8.70801 9.1208 8.2981 8.71014 7.79199 8.70996ZM11 8.70996C10.4937 8.70996 10.083 9.12069 10.083 9.62695C10.0831 10.1331 10.4938 10.543 11 10.543C11.5062 10.543 11.9169 10.1331 11.917 9.62695C11.917 9.12069 11.5063 8.70996 11 8.70996ZM14.208 8.70996C13.7019 8.71014 13.292 9.1208 13.292 9.62695C13.2921 10.133 13.702 10.5428 14.208 10.543C14.7142 10.543 15.1249 10.1331 15.125 9.62695C15.125 9.12069 14.7143 8.70996 14.208 8.70996Z" fill="#6E5DC7"></path>
</svg>