<svg width="44" height="44" viewBox="0 0 44 44" fill="none" xmlns="http://www.w3.org/2000/svg">
<path d="M13.75 6.875V37.125H8.25C7.88533 37.125 7.53558 36.9801 7.27772 36.7223C7.01987 36.4645 6.875 36.1147 6.875 35.75V8.25C6.875 7.88533 7.01987 7.53558 7.27772 7.27772C7.53558 7.01987 7.88533 6.875 8.25 6.875H13.75Z" fill="#0F2805" fill-opacity="0.4"></path>
<path d="M31.625 19.25C31.625 19.6147 31.4801 19.9645 31.2223 20.2223C30.9645 20.4801 30.6147 20.625 30.25 20.625H19.25C18.8853 20.625 18.5355 20.4801 18.2777 20.2223C18.0199 19.9645 17.875 19.6147 17.875 19.25C17.875 18.8853 18.0199 18.5355 18.2777 18.2777C18.5355 18.0199 18.8853 17.875 19.25 17.875H30.25C30.6147 17.875 30.9645 18.0199 31.2223 18.2777C31.4801 18.5355 31.625 18.8853 31.625 19.25ZM30.25 23.375H19.25C18.8853 23.375 18.5355 23.5199 18.2777 23.7777C18.0199 24.0355 17.875 24.3853 17.875 24.75C17.875 25.1147 18.0199 25.4645 18.2777 25.7223C18.5355 25.9801 18.8853 26.125 19.25 26.125H30.25C30.6147 26.125 30.9645 25.9801 31.2223 25.7223C31.4801 25.4645 31.625 25.1147 31.625 24.75C31.625 24.3853 31.4801 24.0355 31.2223 23.7777C30.9645 23.5199 30.6147 23.375 30.25 23.375ZM38.5 8.25V35.75C38.5 36.4793 38.2102 37.1788 37.6946 37.6946C37.1788 38.2102 36.4793 38.5 35.75 38.5H8.25C7.52065 38.5 6.82119 38.2102 6.30546 37.6946C5.78973 37.1788 5.5 36.4793 5.5 35.75V8.25C5.5 7.52065 5.78973 6.82119 6.30546 6.30546C6.82119 5.78973 7.52065 5.5 8.25 5.5H35.75C36.4793 5.5 37.1788 5.78973 37.6946 6.30546C38.2102 6.82119 38.5 7.52065 38.5 8.25ZM8.25 35.75H12.375V8.25H8.25V35.75ZM35.75 35.75V8.25H15.125V35.75H35.75Z" fill="#0F2805"></path>
</svg>