<svg width="120" height="120" viewBox="0 0 120 120" fill="none" xmlns="http://www.w3.org/2000/svg">
<rect width="120" height="120" rx="16" fill="#F2F2F5"></rect>
<path d="M77.5065 18.4475C75.7913 18.4475 74.4636 18.7076 73.3287 19.266C71.6031 20.115 70.4886 21.8487 70.4329 23.7709L70.4251 24.0361L65.1142 23.7617C65.0019 23.7558 64.8901 23.753 64.7794 23.753C64.6635 23.753 64.5481 23.7559 64.4336 23.7621L61.6369 20.0744L61.6328 20.0237C61.3826 16.975 58.7921 14.5879 55.7349 14.5879H55.7341C55.5745 14.5879 55.4125 14.5944 55.2529 14.6075C53.6766 14.7362 52.2451 15.4711 51.222 16.6768C50.1991 17.882 49.7068 19.4134 49.8358 20.9887L49.84 21.0398L47.0991 26.234C46.6383 27.1075 46.4362 28.0942 46.5167 29.0785L46.6278 30.4359L44.5288 30.7966C41.6018 31.2999 39.4399 33.6357 39.0188 36.4234C36.9867 38.0312 35.8712 40.6718 36.3402 43.4001L37.3162 49.0769C36.99 49.3119 36.6845 49.5779 36.4049 49.8724C35.1801 51.1633 34.5313 52.9229 34.6247 54.7003C34.6404 54.9983 34.6587 55.3405 34.6797 55.7229C31.4464 56.611 27.9808 58.2237 25.1706 61.1103C21.348 65.0365 19.625 70.4161 20.1878 76.6681C20.7151 82.5258 23.254 87.3859 27.53 90.7229C31.1304 93.533 35.3936 94.8035 39.1379 95.3299C40.3341 99.512 41.7196 101.053 43.4502 101.959C46.9618 103.797 55.7332 104.182 62.4731 104.182C66.3395 104.182 70.1084 104.03 73.0852 103.752C78.3345 103.263 80.2077 102.489 81.3479 101.797C84.315 99.9955 85.8795 96.2768 87.3074 79.0003C88.0775 69.6833 88.4816 59.732 88.6196 55.886C88.6839 54.0975 88.0448 52.3932 86.8201 51.0875C86.6445 50.9005 86.4602 50.7249 86.2677 50.5611C86.2947 50.4217 86.3211 50.2829 86.3475 50.1451C86.4209 49.8493 86.4685 49.5454 86.4884 49.2367L87.2152 38.0425L90.9407 27.6396C91.5962 25.8093 91.1733 23.7658 89.8452 22.3461C86.8176 19.1096 79.3424 18.4476 77.5065 18.4475Z" fill="#DDCAC6"></path>
<path d="M82.6722 53.4028L80.9083 53.3536C81.285 51.6166 81.6464 49.8769 81.9749 48.1308L81.9832 48.1322L82.7572 36.2109L86.7283 25.1221C85.2979 23.5929 78.0944 22.2658 76.2911 23.1531L75.9494 34.9268L72.7784 44.9936L73.5586 29.9009C73.5959 29.1789 73.0409 28.5633 72.319 28.526L65.5186 28.1745C64.8142 28.1382 64.2137 28.6797 64.1773 29.384L63.2993 46.3699L61.724 27.1206L57.2716 21.2497L57.2625 21.2505L57.1339 19.6782C57.101 19.2765 56.7487 18.9775 56.3468 19.0103C55.945 19.0432 55.6461 19.3955 55.6788 19.7974L55.8075 21.3695L55.7985 21.3703L52.3599 27.887L53.4823 41.6028C53.1635 40.3848 52.8253 39.1704 52.4628 37.96C52.2714 37.3209 51.6538 36.9199 50.9994 36.9752L50.812 35.8854C50.6684 35.05 49.8748 34.4893 49.0395 34.6329L46.0798 35.1418C45.2444 35.2852 44.6837 36.0789 44.8273 36.9142L45.0154 38.0085C44.4472 38.1782 44.043 38.6836 44.0097 39.2772L43.8562 39.3035C42.702 39.502 41.9272 40.5984 42.1256 41.7526L43.4688 49.5655C43.5216 49.8722 43.8129 50.0781 44.1196 50.0253C44.4262 49.9726 44.6321 49.6813 44.5794 49.3746L43.8634 45.21L44.2025 42.7483C44.4482 45.9785 44.8481 49.182 45.3975 52.3599L41.8458 52.2607C41.0682 52.2389 40.4371 52.8827 40.4779 53.6596C40.5423 54.8847 40.65 56.8278 40.8012 59.2218C37.6519 59.5231 32.8688 60.5625 29.5602 63.9611C26.7867 66.8097 25.5984 70.6698 26.0273 75.4345C26.4283 79.8887 28.234 83.3982 31.3942 85.8646C35.2623 88.8836 40.3462 89.6212 43.9977 89.6982C44.7266 93.4539 45.5689 96.0915 46.5283 96.5937C50.685 98.7692 75.7417 98.7704 79.3275 96.5937C82.5036 94.6656 83.8423 62.305 84.1068 54.9316C84.1362 54.1121 83.4919 53.4258 82.6722 53.4028Z" fill="white"></path>
<path d="M56.4063 19.0082C56.7826 19.0082 57.1018 19.2971 57.1331 19.6785L57.2617 21.2508L57.2708 21.25L61.7233 27.1209L63.2985 46.3702L64.1765 29.3843C64.2118 28.7023 64.7758 28.1731 65.4508 28.1732C65.473 28.1732 65.4953 28.1738 65.5178 28.175L72.3183 28.5263C73.0401 28.5636 73.5951 29.1792 73.5578 29.9012L72.7777 44.9938L75.9486 34.9269L76.2904 23.1534C76.6924 22.9555 77.3625 22.8678 78.1775 22.8678C81.0184 22.8679 85.6161 23.9342 86.7276 25.1224L82.7565 36.2112L81.9825 48.1325L81.9742 48.1311C81.6457 49.877 81.2843 51.6169 80.9075 53.3539L82.6714 53.4031C83.4911 53.4261 84.1355 54.1124 84.106 54.9319C83.8414 62.3054 82.5028 94.6657 79.3268 96.5938C77.5342 97.6821 70.3755 98.2261 63.1444 98.2261C55.9115 98.2261 48.6062 97.6819 46.5276 96.5938C45.5681 96.0916 44.7258 93.4542 43.9969 89.6986C40.3454 89.6214 35.2615 88.8839 31.3935 85.8649C28.2332 83.3985 26.4275 79.889 26.0265 75.4348C25.5976 70.6702 26.7859 66.81 29.5594 63.9614C32.868 60.563 37.6511 59.5234 40.8004 59.2221C40.6492 56.8281 40.5416 54.885 40.4771 53.6599C40.437 52.8958 41.0467 52.2604 41.8068 52.2604C41.8195 52.2604 41.8323 52.2606 41.845 52.261L45.3967 52.3602C44.8474 49.1823 44.4475 45.9789 44.2017 42.7486L43.8627 45.2103L44.5786 49.3749C44.6313 49.6816 44.4254 49.9729 44.1187 50.0256C44.0865 50.0312 44.0543 50.0339 44.0226 50.0339C43.7533 50.0339 43.5152 49.8401 43.468 49.5656L42.1248 41.7531C41.9264 40.5987 42.7012 39.5023 43.8553 39.3038L44.0089 39.2775C44.0422 38.6839 44.4464 38.1784 45.0146 38.0087L44.8265 36.9146C44.6829 36.0792 45.2437 35.2855 46.079 35.1419L49.0387 34.6332C49.1268 34.6181 49.2143 34.6107 49.3006 34.6107C50.0341 34.6109 50.6828 35.1383 50.8113 35.8857L50.9986 36.9753C51.0389 36.972 51.0788 36.9704 51.1185 36.9704C51.7271 36.9704 52.2824 37.3605 52.4621 37.9603C52.8245 39.1707 53.1628 40.3852 53.4815 41.6029L52.3591 27.8873L55.7977 21.3708L55.8067 21.3698L55.6781 19.7977C55.6453 19.3959 55.9443 19.0433 56.3462 19.0106C56.3664 19.009 56.3864 19.0082 56.4063 19.0082ZM56.4063 13.8198H56.4055C56.2459 13.8198 56.084 13.8264 55.9244 13.8395C54.3479 13.9682 52.9165 14.7032 51.8933 15.9088C50.8705 17.1139 50.3782 18.6453 50.5071 20.2207L50.5113 20.2719L47.7704 25.466C47.3096 26.3394 47.1076 27.3261 47.1882 28.3104L47.2993 29.6679L45.2001 30.0286C42.2731 30.5318 40.1113 32.8677 39.6902 35.6554C37.6581 37.2632 36.5426 39.9039 37.0115 42.632L37.9875 48.3089C37.6613 48.5439 37.3559 48.8098 37.0762 49.1044C35.8516 50.3953 35.2027 52.1549 35.296 53.9323C35.3118 54.2303 35.3301 54.5726 35.3511 54.9548C32.1179 55.843 28.6521 57.4556 25.8419 60.3422C22.0193 64.2684 20.2963 69.6482 20.8592 75.9001C21.3865 81.7577 23.9253 86.6179 28.2014 89.955C31.8018 92.7649 36.0651 94.0356 39.8093 94.5619C41.0055 98.744 42.3909 100.285 44.1216 101.191C47.6333 103.028 56.4045 103.414 63.1444 103.414C67.011 103.414 70.7798 103.262 73.7566 102.984C79.0058 102.495 80.8792 101.721 82.0192 101.029C84.9864 99.2276 86.551 95.5087 87.9789 78.2322C88.7488 68.9153 89.153 58.9639 89.291 55.1179C89.3553 53.3294 88.7162 51.6251 87.4915 50.3196C87.316 50.1325 87.1316 49.9569 86.9391 49.7932C86.9661 49.6536 86.9926 49.515 87.0188 49.377C87.0922 49.0813 87.1398 48.7774 87.1598 48.4687L87.8866 37.2744L91.6121 26.8717C92.2677 25.0412 91.8448 22.9977 90.5165 21.578C87.4889 18.3415 80.0139 17.6797 78.1778 17.6796C76.4627 17.6796 75.1351 17.9395 73.9999 18.4981C72.2744 19.347 71.1599 21.0806 71.1042 23.0028L71.0965 23.2681L65.7856 22.9936C65.6733 22.9879 65.5614 22.9849 65.4508 22.9849C65.3349 22.9849 65.2195 22.988 65.1049 22.994L62.3082 19.3064L62.3041 19.2556C62.0541 16.2069 59.4635 13.8198 56.4063 13.8198Z" fill="white"></path>
<path d="M66.5915 73.6651C66.9941 73.6858 67.3036 74.0291 67.2827 74.4317L67.1616 76.7769C67.1408 77.1795 66.7975 77.489 66.395 77.4683C65.9924 77.4474 65.6829 77.1042 65.7036 76.7016L65.8249 74.3563C65.8458 73.9537 66.1889 73.6442 66.5915 73.6651Z" fill="#484B60"></path>
<path d="M65.6517 28.1816L72.1808 28.5191C72.9785 28.5604 73.5918 29.2405 73.5506 30.0383L71.5264 69.2001L62.1436 68.7151L64.1695 29.5181C64.2097 28.7398 64.8734 28.1414 65.6517 28.1816Z" fill="#FFC15B"></path>
<path d="M65.7763 75.1256L66.5142 75.1637L67.2522 75.2019L71.5264 69.2L70.8447 68.3247L69.1226 69.0757L66.8066 68.116L64.5475 68.8392L62.9138 67.9148L62.1436 68.715L65.7763 75.1256Z" fill="#E1AA8C"></path>
<path d="M69.2986 69.0848L68.9458 69.0664L71.0447 28.4602L71.3976 28.4786L69.2986 69.0848Z" fill="#DB9A3D"></path>
<path d="M64.7234 68.8485L64.3706 68.8301L66.4695 28.2239L66.8224 28.2423L64.7234 68.8485Z" fill="#DB9A3D"></path>
<path d="M56.6574 22.8054C56.2556 22.8383 55.9032 22.5392 55.8703 22.1374L55.6787 19.7969C55.646 19.3951 55.9449 19.0427 56.3467 19.0098C56.7484 18.9769 57.1009 19.276 57.1338 19.6778L57.3254 22.0184C57.3581 22.4202 57.0592 22.7725 56.6574 22.8054Z" fill="#484B60"></path>
<path d="M63.6339 67.7608L57.118 68.2939C56.3218 68.3592 55.6236 67.7665 55.5584 66.9703L52.3599 27.887L61.724 27.1206L64.9253 66.2391C64.989 67.0159 64.4107 67.6971 63.6339 67.7608Z" fill="#AAD1DF"></path>
<path d="M57.2716 21.2493L56.535 21.3094L55.7985 21.3697L52.3599 27.8864L53.1519 28.6633L54.759 27.6901L57.182 28.3335L59.3249 27.3164L61.067 28.0155L61.724 27.1201L57.2716 21.2493Z" fill="#E1AA8C"></path>
<path d="M57.8408 68.2344L54.5244 27.7093L54.9942 27.6707L58.3106 68.1957L57.8408 68.2344Z" fill="#80B6C6"></path>
<path d="M62.4063 67.8609L59.0898 27.3358L59.5597 27.2971L62.8761 67.8221L62.4063 67.8609Z" fill="#80B6C6"></path>
<path d="M71.0755 79.4578C69.8685 79.2301 69.0059 78.1631 69.0293 76.935C69.2186 66.9623 70.3295 56.7564 72.3617 46.3174L81.9751 48.1309C80.0845 58.1794 77.396 68.0773 73.9096 77.8248C73.4922 78.9921 72.2938 79.6876 71.0755 79.4578Z" fill="#484B60"></path>
<path d="M75.9496 34.9268L72.3618 46.3174L81.9835 48.1325L82.7575 36.2111L75.9496 34.9268Z" fill="#E2E8ED"></path>
<path d="M82.758 36.2116L75.9502 34.9273L76.2919 23.1537C78.0953 22.2665 85.2987 23.5934 86.7292 25.1227L82.758 36.2116Z" fill="#DF8C9A"></path>
<path d="M77.5187 35.2054L77.0498 35.152L77.9751 27.0393L78.444 27.0927L77.5187 35.2054Z" fill="#CC7587"></path>
<path d="M80.2376 31.3485L79.7734 31.2656L81.2238 23.1538L81.6881 23.2367L80.2376 31.3485Z" fill="#CC7587"></path>
<path d="M80.5124 35.8006L80.0537 35.6891L82.1255 27.1555L82.5842 27.267L80.5124 35.8006Z" fill="#CC7587"></path>
<path d="M82.154 36.1258L81.7036 35.9848L84.8422 25.9321L85.2926 26.073L82.154 36.1258Z" fill="#CC7587"></path>
<path d="M44.0244 50.5045C43.5297 50.5045 43.0914 50.148 43.0042 49.645L41.6612 41.8318C41.4193 40.4233 42.3686 39.08 43.7767 38.8377L44.6178 38.6936L44.7772 39.6231L43.9365 39.7672C43.0407 39.9216 42.4368 40.776 42.5906 41.6723L43.9338 49.4851C43.9425 49.5349 43.995 49.5662 44.0401 49.5597C44.0899 49.5511 44.1235 49.5031 44.1152 49.4534L43.399 45.289L44.3285 45.1287L45.0447 49.2935C45.141 49.856 44.7619 50.3921 44.2 50.4894C44.141 50.4994 44.0826 50.5045 44.0244 50.5045Z" fill="#FFC15B"></path>
<path d="M54.4176 74.6079C54.0055 74.6788 53.6139 74.4021 53.5431 73.99L53.1751 71.8499C53.1043 71.4378 53.3809 71.0462 53.7931 70.9755C54.2053 70.9045 54.5968 71.1812 54.6676 71.5933L55.0356 73.7333C55.1064 74.1455 54.8298 74.5371 54.4176 74.6079Z" fill="#FFC15B"></path>
<path d="M50.3548 43.2355L47.713 43.6896C46.7898 43.8483 45.9127 43.2286 45.754 42.3056L44.8544 37.0723C44.6957 36.1493 45.3154 35.2722 46.2386 35.1135L48.8803 34.6593C49.8035 34.5006 50.6806 35.1203 50.8392 36.0435L51.739 41.2766C51.8977 42.1998 51.278 43.0768 50.3548 43.2355Z" fill="#FFC15B"></path>
<path d="M56.89 64.6308L48.7457 66.0308C45.9798 57.3627 44.3989 48.4907 44.0033 39.4151C43.9724 38.7051 44.4802 38.0838 45.1805 37.9635L50.8794 36.9836C51.5773 36.8637 52.2602 37.2808 52.4634 37.9591C55.0678 46.6556 56.5435 55.5462 56.89 64.6308Z" fill="#484B60"></path>
<path d="M53.591 65.1979L52.0538 65.4622L48.7451 66.031C50.1599 70.2422 53.1914 72.0794 53.1914 72.0794L54.7287 71.8151C54.7287 71.8151 57.1155 68.8559 56.8997 64.6292L53.591 65.1979Z" fill="#484B60"></path>
<path d="M48.1715 64.4569C48.3218 65.0137 48.4741 65.5702 48.6296 66.126C48.6397 66.1626 48.6761 66.1856 48.7137 66.1792L56.9687 64.7601C57.0062 64.7535 57.0328 64.7194 57.03 64.6815C56.9882 64.106 56.9433 63.5311 56.8965 62.9566C56.8929 62.9133 56.8528 62.8822 56.81 62.8895L48.2306 64.3645C48.1876 64.372 48.1602 64.4147 48.1715 64.4569Z" fill="#FFC15B"></path>
<path d="M79.3271 96.5932C75.7413 98.7701 50.6846 98.7689 46.5279 96.5932C42.8314 94.6585 40.8671 61.0708 40.4775 53.6595C40.4367 52.8825 41.0676 52.2386 41.8453 52.2603C55.4895 53.808 69.0995 54.2301 82.6717 53.4025C83.4914 53.4255 84.1357 54.1116 84.1065 54.9312C83.8419 62.3047 82.5031 94.6653 79.3271 96.5932Z" fill="#DF8C9A"></path>
<path d="M44.6748 89.7053C40.9963 89.7057 35.5072 89.0749 31.3938 85.8643C28.2335 83.3981 26.4278 79.8885 26.0268 75.4343C25.5979 70.6696 26.7862 66.8093 29.5597 63.9609C34.7707 58.6081 43.6461 59.1048 44.0204 59.1259L43.729 63.8323C43.6581 63.8277 36.6076 63.4628 32.9257 67.2628C31.1397 69.1058 30.4194 71.6402 30.7229 75.0114C31.0059 78.1522 32.1702 80.4833 34.2823 82.1377C39.2855 86.056 47.8512 84.7968 47.937 84.7847L48.6634 89.4435C48.4998 89.4691 46.9261 89.7053 44.6748 89.7053Z" fill="#DF8C9A"></path>
<path d="M64.4912 86.8563C64.4912 86.8563 43.9091 69.52 50.7698 64.8725C57.6305 60.225 65.2289 71.143 65.2289 71.143C65.2289 71.143 70.8355 61.2577 76.2945 64.5774C81.7536 67.8972 64.4912 86.8563 64.4912 86.8563Z" fill="white"></path>
<path d="M40.8818 63.9426L40.5654 59.2361L41.0361 59.2048L41.3525 63.9113L40.8818 63.9426Z" fill="#CC7587"></path>
<path d="M43.7656 89.744L42.9771 84.9878L43.4423 84.9104L44.2309 89.6666L43.7656 89.744Z" fill="#CC7587"></path>
</svg>