<svg width="17" height="16" viewBox="0 0 17 16" fill="none" xmlns="http://www.w3.org/2000/svg">
<path d="M8.49935 4.83366C8.77549 4.83366 8.99935 5.05752 8.99935 5.33366V7.50033H11.1657C11.4418 7.50033 11.6657 7.72418 11.6657 8.00033C11.6657 8.27647 11.4418 8.50033 11.1657 8.50033H8.99935V10.667C8.99935 10.9431 8.77549 11.167 8.49935 11.167C8.22321 11.167 7.99935 10.9431 7.99935 10.667V8.50033H5.83236C5.55621 8.50033 5.33236 8.27647 5.33236 8.00033C5.33236 7.72418 5.55621 7.50033 5.83236 7.50033H7.99935V5.33366C7.99935 5.05752 8.22321 4.83366 8.49935 4.83366Z" fill="#6E5DC7"></path>
<path fill-rule="evenodd" clip-rule="evenodd" d="M2.66602 8.00033C2.66602 4.77866 5.27769 2.16699 8.49935 2.16699C11.721 2.16699 14.3327 4.77866 14.3327 8.00033C14.3327 11.222 11.721 13.8337 8.49935 13.8337C5.27769 13.8337 2.66602 11.222 2.66602 8.00033ZM8.49935 3.16699C5.82997 3.16699 3.66602 5.33095 3.66602 8.00033C3.66602 10.6697 5.82997 12.8337 8.49935 12.8337C11.1687 12.8337 13.3327 10.6697 13.3327 8.00033C13.3327 5.33095 11.1687 3.16699 8.49935 3.16699Z" fill="#6E5DC7"></path>
</svg>