<svg width="30" height="30" viewBox="0 0 30 30" fill="none" xmlns="http://www.w3.org/2000/svg">
<path d="M15.9375 6.25C15.9375 5.73223 15.5178 5.3125 15 5.3125C14.4822 5.3125 14.0625 5.73223 14.0625 6.25V14.0625H6.25C5.73223 14.0625 5.3125 14.4822 5.3125 15C5.3125 15.5178 5.73223 15.9375 6.25 15.9375H14.0625V23.75C14.0625 24.2678 14.4822 24.6875 15 24.6875C15.5178 24.6875 15.9375 24.2678 15.9375 23.75V15.9375H23.75C24.2678 15.9375 24.6875 15.5178 24.6875 15C24.6875 14.4822 24.2678 14.0625 23.75 14.0625H15.9375V6.25Z" fill="#312E34"></path>
</svg>